<mxfile host="app.diagrams.net" modified="2023-04-26T13:47:19.701Z" agent="Mozilla/5.0 (Windows NT 10.0; Win64; x64) AppleWebKit/537.36 (KHTML, like Gecko) Chrome/112.0.0.0 Safari/537.36" etag="rB4VV2R57pMOwcLAMTMK" version="21.2.1" type="github">
  <diagram name="Page-1" id="atkY5C2OQ_kr6pjtGge2">
    <mxGraphModel dx="1221" dy="775" grid="1" gridSize="10" guides="1" tooltips="1" connect="1" arrows="1" fold="1" page="1" pageScale="1" pageWidth="850" pageHeight="1100" math="0" shadow="0">
      <root>
        <mxCell id="0" />
        <mxCell id="1" parent="0" />
        <mxCell id="hIOBq9RyqxrBLjO1l1mz-13" value="Training Batch 1" style="verticalLabelPosition=bottom;verticalAlign=top;html=1;shape=mxgraph.basic.rect;fillColor2=none;strokeWidth=1;size=20;indent=5;dashed=1;" parent="1" vertex="1">
          <mxGeometry x="150" y="232.5" width="520" height="180" as="geometry" />
        </mxCell>
        <mxCell id="D7USSIF6qrwCwETU9et6-2" value="&lt;font style=&quot;font-size: 48px;&quot;&gt;Single GPU Training Optimization&lt;/font&gt;" style="text;strokeColor=none;align=center;fillColor=none;html=1;verticalAlign=middle;whiteSpace=wrap;rounded=0;fontSize=16;" parent="1" vertex="1">
          <mxGeometry x="10" y="120" width="830" height="68" as="geometry" />
        </mxCell>
        <mxCell id="hIOBq9RyqxrBLjO1l1mz-1" value="" style="shape=image;imageAspect=0;aspect=fixed;verticalLabelPosition=bottom;verticalAlign=top;image=data:image/png,iVBORw0KGgoAAAANSUhEUgAAAOEAAADhCAMAAAAJbSJIAAABSlBMVEX////p6+83Rk//bV7nSzz/yBr/4Cw0RE3/b2Dk5+vvSzsjNkE0Rk8oOkTsSzsgND8vQEkmRlAhRlCrsLP19vj/zBctRU/sUkPiSzwcMT27v8H/5ir5ZVb5+fru8PPe4OFtdnz/3CnyW0wvQVD/6Cmdo6dCUFjLztD2a13NSj//1COySUPCxch4gIXnzTEpPVBdTFGZV1UeN1HAX1h7UVOeSEVPRk2FjJFNWmFaZWyTmZ1jR0uDio8OKTZlb3XZZVu6XljSY1rDSkGpSURwR0qISEjESkBWYWiUi0LSvDZnaUnpaFyJVFTxvx+USEZvT1KnWlbpzc7p291HUkx1c0iDfkWek0FSWkurjzfdsSfXSj6Lej/exjPoe3TiOCSMVVTolZB7eEa6qTutnz7PqCxjYEeahDuhiTm4mDNCTUzmuCNxP0HovLzVgXz0lif5AAAb9klEQVR4nO1d+VfbxvYvgkReJFuWscAQL8F4IdgxGDBmXxPaOAlpQ5KW97okbV6XvO///+tX0tw7mtFia2Rhet7pPac5TTCe+eiuc+fq3q+++of+oX/IpPJS3o+Wyve9sbgof5RW/Sh9lL/vrcVDM0dSEB3N3PfmYqG8GohQ/d9g4v8+wsoIKa3c9+bioXwRbQuyDqj4d2VhqdJsLy0tNZth7UQyXyck2wBl+Fs+GfL3Z5pNc712s1KKuuXwVGrWj7ViNm2a/3Q6WywOdpfCbtMiQCjwG8ml3UHRWVA7rjfvEGap3dGyqsYqkqyls4N6WG0qAcKwe6zUB9m0JnPrqVmt074bkDP75mp+5kJWi4OlUF8hhrA9KKqy34LmU92Py5Emq/JV2/6/SicbbPQlOS2FwSiCMC+lfeGBrcp2iOC0r+SqiJ64aKaoyfKRuffSbtGXfSzGRjNGhM3GKHw2I4u75ueWjmRZK0ZnaMeCJctftVWef3LNJn4PcrEzbudhEZaqRXn8gqra/kq2/knrREY4sL9S67Dr1bq93tubd19//e7j51qv12V+pEpjTE5IhBWJeaCyuV7t80drwZu35no19pke2pIlDyIjrBLRdAS01qt9/PR0dXXZptXVh9+8/8CAlMe48HAI80fOF3Z7H95/89BZ8Omnj+YeHFElf1YjI6wccXJR691883B5+SFD5rJP30sORls5JkO4X6T4etL7p8vuBR9+c8NgtD42SezXHLD43j1d5Vaji35628NPpaujvi+Ex6+m8at6bz8t+663+vQdi3Ew3sSNoArViN6Lp6vcQo+fPHlSsOjJk8cPf63hkqqP2pcr7Xx9v7M3AIRXx539er5Z8bGBVVywVvvVWgJWMJdgafXpC/pM1Ymi9xl0ubXup1UOXeEBR4VXn7vIRVZQk+16x466VFXTZBRmWdOsI362mB106m3Wne0jB7ufC+4lOJSrn9DmyOoE3n9egj11Pzxl5OXJAx8qfN+DD2fr9i/bIawJTRvl2MwozAzDaLCZRx3sfV/wW+QJI6tPP8AzlaXoQdwxWNHui3H4LIi/ocEpVsyI8tgMlsdECZTMYDO7Z0a3FQAo937zBchjfPgCIGrHUQHWQWS675bH4rMg/gAu2fwz6x9RjuKmmpVBZOTaD0EAOYzL7wBiuh4NIJ7NuzdUBR+PWNmCiLooCo+n7iiA5jJUH1dvYMGjaKHpHhGymiOiIxhoL/3k+67vlhXFMHK5nO6Q+TfDUBR/gH+47VggG5c/E3Oj7UUB2M6CyFCpGL1uofDbZy9AxcjpOWXj5ebp1tnJcDhstVrmnydnW282tzcU82eGF2b3829uQ+peiwoVKEa2HQEh2PbeN8thABYefC91ax5wxsbm6UkrYdKsm6x/bJ2cbh4oHpi17p/fvxq9HDLxG+IXZZG8AdASMTPdr0EJH49c8NV/al1O+Uz2SC9PT2Z9oLmBzg63Xkomo9lfl7vd/4zGCMq4+jWRm3S4MzhLJP6QZZSH0fh49pnMuz4djgXHwhy+OTBZycnqGIy4MSJr4ueLJnFNvU/L40S08IDHp+SM7a1WeHQUZWvrOsdxstv9/cGIdUFOPxEmFkWj0w45eUnLY6xoofCHzNgXxdA3Tj3wLDV89OjRikPm32a9yplonV7rrE52pT+CbQ5Y1GUJTrFiAEskAO7+ujxaCQu/vWX0z2Tf5pDftvm3RysLC3N+tLCw8sj+BPv54abCMFLuvg12jkQVl38lT1gVQ9gGOzNaCQsPPvYYfHr/lGNLwgLni43DacLkfitx2tcZjL1/BYoq7A5sjZjDIOmB2sflUUpY+INRQEXfOEvw6MaCc4hHmTjbYDDWan8EbYAw8cbehXYohLBhs6ZLfKG/jBZe3fQC8Jnw/HmXIeTPSxYkh1Hu3QSw8TFja+SGCMAyWNIRdtQ8StQcfAcnDAs88DKZVCq1eHu7dn5+vm7+t3Z7O2f+iweqCZLByMhqTfY/bIA9JU+6KHJp3rTVUP6wGsjCwr8cDcz1Hf4lZnnhzKQyc2vrr79skPiNkB3EbHx5vb5m/5wTV4eRiS0px2ijL0Sbiasf7K2kRfwFudSsfb0cwMLCX2+pizByb5wHz7HP3P3axbO+GWf7RNl2NK7r/WcXazzKhUeOOLzRaRDQ/eDn/20mLn9tS5PQdeu+bWiIr/BhISOhir7tuL9HHLzbi0sp5xdZc0DNQ4d0eXHLgnQwJoYHVFRrXT9Jfez4C3VfACE53JOg2+vsC79TE2MoVEBZ/pnwdjZ8zw0BKPWNHRYkg3GLxnJy73cvxCdO+C2UNt2zBbv3b18hLdxQCdW3feQzk1q86Osh0Tko9f7FogPSwdg60PFD3Y/ezVhb/LeNUBY5JJKwu/fUR0gLD+gpUNG3EmhfGHzPL/nwEkmWZY2QLPslAZRc7vKcwYg2J3FKJbX72eM2LDF9ShCKBN/EHfYeexEWXv2JKpjrUw2k9jMzZ7HPDU2zModaY7B3XK12qtXjvUHDukj2puFMRq7PUYwrVBv7+JW1P932hkEo4hAZHvJqWPhLRoD6SyqgDr4dycU+2QSnVfeXmmU+5VcqN5f2q1a2kUep5KQdByMV1W2U1Jr0Fw/xSTQeXjkIue8r/IBxtqKfuhmYyVwoHD5ZS6eP681RjrjctNKOHC9NjBcUI2XjG5RUucZDLDh6eCWAkLGlAQANCGIcBqbWOf7JalbaD1VVUGru89lHE+M61UdgY+IMv1x2peIcWyqSNiWBd/cTj7DwA8YxRr8FzxYZmLo9YIJlScs2QtcvWFSpN7JM/tgMc9dSyEaQlaEEyij3OIg0MBUKvet2TNN9v8waGoeDxgY6iQUU0NfsgUdNH4rfBzUPWZ1U9GcoqgvoNtDe8Fx8/HD5PfH4InnhJRK13bAIC38hwNw1AkQGrvVzDr60XJ8XxmfRPFedkJPOkY2ojBsUIqOLj/H4pIocEOECocsgLLxSEOC2SwUzz5iTTroxIutVIhT8gaVBlmJU9C/IRrSp1/AgZfkVixAyNULXbCSJYQY1Dg/f1lwAQQUztw4Dg6pOSvPz5RmeyvPzvkiXmCoMo4/aiMq4DUvV3jIIiSkVTGOQG3xTERFh4XMAwNS6Y0FVzRvelzzYeJxemHmZXssq+gUPMYFcrH1GOX28TFKmgrf55Pgkv10GW1r4F4RqxgHoxAKVUNyOVtx1b7c0Ch1F6fmtfad6R/+C9ga4eAC62MUD48PlP22mC9aqzpBLC9MjEoDfw2mCWtEFCGIOqISm91wXQKHg+YOsXNHb/Fx/McOZVDQ3eImKif2s4FUwiWpqL1bBEaJiJDiAtzRglLMuWz0fGh4hl/nNU4tjSLccxASuCW5x9YWtP0IRjb0C2horLn0FZwFFanEA1+gRSR1wDBRgH8NIbgMzA9RGJXfOQWxJZFViUJ+gnRGtxoWUcO3FY8bK6ENWB1Pn1MYUueN1ML4moUCMnLDSwhpFX0+xujjUGWvzmLBQUoUv8/eBib8VCr+DlYHjIAJcp8Ewf3sXzL9kNm1RNhmOj20qqTzExBZA7P5eKHwCFoqkMGCf5AnKygNUwtxmgnETJkBYXmuwOj5K/5JwTx+MkNfHZENzQSROI7GZQ1V8ADfqQqlEIGBi7eYt+Q7jOsFEMg5AdY+Rj9KIvYdDODPDft2e6oJIopsE+Az5w00tKgutIjSyH7hHVhRiZQjAzDkCTLN3PmMMTDiEnKh20G3oYG5I0rgF2Uk4j8uhC6s5WspKDOlnTLCdWUM3mGUqoEYzMDxCjo27sAslt5ZhwvAznd1cVvwG2KZj5sQGSkj8ROYW3USWkY7xHjA0QlYb9xGiscj4jMTPzmkmesnQvJMSU/pcMNr3ARjCBYZHyEoqhdjnQtS+c56JJqMWNen7POAJwcpgbMgU6Y2VUEGEM4x93gVdNC5TjCoOqZweTVB+iS9loYwSgK9BQJhCy1AAxRAyytjBbbxOOapIXYYaUQltqpCnp0hMLEPNqFqln3NUsGxSTAgZiFh1CgYVYhuI3tKTFJhC4RfYUaKEi2CoNSc9yQBcOjxsBkIURMjYmwHZiKIQa7PC2tNoJV+EoOQEfP0sp4SySo0BA7Ca1bRiPQiiKEIHYhmSVMYBK6fXZCvChSYOkSOUpLcYGb0AGXW+luWgbfaKSwEQk9aNhSxroRE6EOFhS/oFI6ctshfhgxOlJjHTBjEzxI7eohmlx0HGyJR3iTCpFX+IyQGh8AgdXcRiV+PWsaeJTbKbbFQmEhYqio+MOj6WtaJliGXlRgCGMqHwABmIEH/wckpsQlQmgmDk3iSomclAvM2UVnPbQVnSjqMcgf2JPkqIP/T1DDU2iTe5STSRGFLFYOLROTDQzjfyuymjLKm7olmM8RDbRXBdc0x8SsLHaGFbhWUhCddSz8gjcxJ3blbNo3PO5mPjIrXZ8JIS+H07eKNMjOITD4GFjBbegoyqaOJ8GAWeS0oHu0VRoquh3791mNgCuzDybSR/KrGGFFh4CaaLhkk+20nCZaCITxhHuByc5yA+JUxEcyoefENISnwhYeGaO4bw200ZfIwZ88RvbTDGWmOYSDYVoXcBuco3tr0spDLvb0zKeYCoVmOX04oPE7cN4qBEAYKd0U+8LKyOYqEFcRf0JR0YvgkTLgnGhtXEEz2arQE703d8IWUhLhe4/TImBwLDN2FCe5qESPlLyvGJ5CgsbGtUcBX2dxBDmuOt1ogjYbIByYGg8E2c0JAcgscgZwz7+YPDiFYjTOyMHZFmXoPRwsc56onja4uB4Zs4oeCAJr7O0OgUbI1gjTApZCfHJshxk3CGFoyPjFnKmKeLL3yb53YGgQ2xNeQQJVjKDkK6Re1MZt0VPIzezx2Eb7AuhlokOrX3txVBTEkFrZRzjk2pAxLFoy8ct+/4wzdkIpx4yBGDHKIIQqEz1K5HSCFgoy/fjN9R7OEbrAyvKxGHscCKqYg1JbaQFVKwMxp8IERuLfbwDc0pEQ5jxy2mIk4/SexEzrGkKXA6mAEOsaEyiHps4Rsa8X1w1Sm3Nc2Gf8+SFAwpG4yQ8nYmVHo09vANmIi2hhHTDfv5CyROwVeQ/IwtpDtEDjCBGG7HcYdvyERSG5pzxBQOGAL+gs2SEiGFh4Tpp7BbwvAtG0/4BqvXQcQcMcXMaViAMxB1O2ngRRB0ESG1KObwDcWUSL++6CSHIfoOW3DSdqshunt8RqF3y4RvMQCkYqoyTp9VxNCBG8kJsmr4jMg5FnAK7Cne8A3WJ+G38cytiKHvuvcYb8j6CrRVoYV0Ju7wDcSUOH3WX4BHDHuDQcobyJUhUUP+WCG0VRq+FWMI3yBywwOGo4jkMlGWwgEkv69INH+Rec7HDII7vYovfENFJAZMf56h5wty8smGqzkhsQhraHZ4dyO4LSZ8K5fLScGsPk+wA+KwiUdkTU3I4Jtk2YyXjqH5QvQY0lkiamiRE75d/TJcyCwMf/k2MsYSt8Uvjql5yW1xDIEpfUPDbjA0+H6fsMUoY9sZkl7JpH768buIGOc5MSOmxt7nGxFjCiLAmFLwpyDk4puj4RtexGd++m80iLgFiEncxjRk3EaOmCSPuMKcDfEMHWVjGL7BxdHcXFSIsAdIV99SY0pyiiGv2eC3qbNAU4rOJtLOBljof4sQv5sEIeECKZNi3EXITAYporGjUjZmQwkQNTQ2lf8P7o7xbmwu9WMkJoKpAU1y4jaITI/CAJwvMu6QcRaoxYAwydG4jX37E9aoGAdzizb99G3SQ7wj8VsCEII1ZNwFuQ0uhnmXhaSVSbabIHzNWWJiSstVUnVAKN0ezZDyL6nUDkBUkGQvNZi4p9xOMz/R4BQNCMBdvHYQEntfDHPMJ2cTcPhM3I1JKIpQcmgswlaG3gqMIpmpVCm308xPXAhJZAqxN+vyw9xeEF9DLp1mmQsL3h3yCNUxCGfsJ9VnXm4LIpVByLYUdSGETV5ShwhXUKHeyfciPOAeTzkCwqT9rBcDWl+xlK2MRljmBO0gEkIiHEzQFgPCsn0KcOpugyk9hoeBCEnYFuoM3HaHpZCkwVydH8Kxeji0mZi64Cp7vTReD3mEG26Eod7QAyX+2UEIZmrGhVDMlhIn+MxQJrOlgBANvoPwZ84cxoBQ2B8SP59ZpBTNHwLCmUkQevVww0cPBan8o7tTS8SYZoyUhtLD5l0gnPnuJxfCiHHpOIRhbCn55XHeQnhn/+UhTnh8agZ4i1Ae34vwkjsARzy7mhAdQY18PqQIAzy+AELlYHTUFmFv3/34E1jU6Gf8WKI2LvKeC4q8I2H89peVuczcygR5mlgi75Cnp2gYyzPJmUlybbGcnr5i7mX8TsDRzvhxEewh6ARcDAMQU96tWLMYMSOEi4fnNItBroFDXnSTrBHJRNm5tskzUbEjZDNRj5xMVMha4cPYs4nx0bhsYrj2JvW4M8Ix0riMcLj2JqROgQ29J8vqx0murL7n8BSuVsHnZuZvY0xhBxPezIy9Xbt/hA3WlDK3a+mQjXEacd6QxkrjbkjDVkVVPcY0+i13vIS33CpjaFhTWg2JsB5fpULMBOsHViqE7RTV9pgaErfJwtUmMRPeYUMldPRqk2RQxZBQWdsdEF/Y5lMxFLp0T2ZuENn6WdGqr7gJVoeqrwN31ZdAc32QcyeqgQOUYOVe3BRYuTe7yduJ8bTkVsS5tQjVl7GTq/rSfjUoYvXlTFAFrSpQQRs/wdr7Hl/RgkJvgU5R3ipoEFO0pvfh9DFeIeU5k1VBQ6ExvNbFVbKjPb4HhLBy21vJTvJsmkiPGnwbwfEXkBamR8zpMxFZSA7obP3sLBFSoX7eE79RcgcE68b0RglWejNiOkeSWdQiT5uJyEJ4qU6Z8wip2FtBIOyMNRV5s+suCFb1e7Mrx5uIcATt2nKns5gXpvmoEG/n3QHh6yS73CuW9tngNNLbeaPesEQmTjOwoWvCG5aX3jcsxcZb0J4Yfm/J0q+aIkJcsuN91TnqW7J+bzofhHrT+S6IvunMs3CiN50hgBd/W/1OCBcc8ba6+Pi8eXhcPh0Himi1pmVs0My0fVgIHQfCXcnwhF0jGCZi1wgNl5yOnOLmS1Aw7tc1QtTOWOTb+cPgPcZU7Cmtv4f3uI1nMXX+gPsdrnsL1m0dBXRvuRPCpaD5DXbDItsy+Jd3xQgchkgHnrsEWJJi78AD2QJsejnHJGyYzKSQtZmkixKUmSlsFyVogRl5MHfbrxMWFN9l6ZsNAtYmebVn0VWUTlj4Qmouzk5YwESum1lqByA6uh0eYtIewKJF6WaGg3RzOyl6qKDdzKLPVseOdNt+HelkunpoiNE70s1rfh3ptifuSOffVTA3oqtgvAi9XQWNmLsK4vuoAp0h40QYsjNkqCqhQIJYPqC7p2D70sjdPbGBqW93T9HhlS4qw3f7d2hlWtDG36HVAYhNaFEJ+Q6tYW9FgygPHUz7jJwyXXaZiH5qXXYXuC67afEWWC4CjxHQKbko1Eg4Wqdk8BOKQV6ZWuBkdAJPgYSOCE7799btWuK7XZ9gk9GJzAwh6GeJcxH+Jh3LwY5G6sXuoQY6W/+2+ipbaXXnXedX+K7z4rkLP6IBEz85gL47cXeTA2acyQEXvpMD4pBRi7BpgH7mmv4Ay8t85DvR9Ae2/eHY6Q+T21GkPXzHlZ/gQQdchJ7g0SYUCp/fBI9ZzhNGbjbvJTx8uqawpJ7TISXpK+52MgjjyPMhj4+bwsIBpHMRJPF+l4GEqmgQx+8MmsFpb5KWdUnMpJN00qiChrTGDwvCSTpxKSEsiBBd05AWnXldcU5DSu6Nn4ZUjE0JCeEb9di9nE7N+8JMtNqPa6KVMynQmWhFlsUu5WzYHxMdY9MAOA7j6ErTazhTyWRvNcSEU8l2cCoZAMTBa2p8VoYSdpjzDF5bo2OtAifnmTA9k+X8wJnUHjVZjgLUJg9HvVTGaaHu6YCZuS/MdMDsYMRN5YTTASlAWYswGmg8zeCISTrhEQcgps6dGeHWhMd81AmPMjPh0XAmPOLIdTr+UBWcsRaWKri+d0rn3DNuSqe6K27JK7vq6Cmd1IrKE020GL2JYuhJq8VGPXyPP9M91BtF5sVi30mrDQQYryPkqYlc9J2W23dNyx2EHCdbqQ/GT8s9wUO3LFY3I0pUUP0nHvMTnU2QajVfGRVblSr5qsrB46c604nHdDb3HYooQKS70X/G1Zmp1RfuqdWauf9Gp96uuI3PfKVd7zTMn2rc5wOmVr+k5xjtjgGaFlXCLflOHs+s93UeozN5/Oq42ukcdjrV46vgyeMXPpPHWzQ21KQ7sqIsla6coF9werym0fHxPj+3psc/95sev0W/Tr2K8Tgxgo5pWKxvz1JRZTDe7vR1ww9kMCkm+3ZuGXxUQBN0rrqUrk4F31fM2VQylLOEF6MJcu11X/flpC+8nN5/vebAY/GdGTQmLMaSdgpHbXSMpk3dpto4y2A0NfJ25yCXy43hpWKYnznYuc0wHQkWHlHJaG1TrZaLYoVrE1KyQeN/g7Sm9/DR4uTc851Lk5c5qxuGG5pigdP7lzvP5xjusfybnX2jUwaqgynYGI46znTEXJ+KqolxZY4FmUllFs8vnl32JYtZDhlS//LZxfmi+XOun8SKgy9xxozDLk52/xKJlmiewRTV6xNnY5ywEpiZVCq1eLv2/HzdovPna7eL5r9keHC2eDpfc7LhuB1NaG56bFQ+dtho6AcORnObKy6QFCohvx8urMwy33ByzbjV7PGE90uRKc9EyyZGR1ZtTq744QigFYZ7BJ/TNsuT5JomlTtF9sDTP2X3aaP05aWLd49cv7W1weAzNfC+GEioKTHdnJScsjlkd2ujDIZpguPRmZ8fbnKhrSrd6UkiFB2yobMZmmyctvhNm9tOWEAfrTj0yIKW8HyuZbGP9SuRKvLipoYrxlRyxvaWZ/PjKTF7tm24w6AYLkAnpqW05CEjp1+fDgVQJhLD02s959OUL1Tjp7slwkK5oXHHWAuk9PJ0ODseZmJ2uPWy74Inq7TV+X0DBBaaj7rOJsqITuZ043rz9KSV8KqcrZyJ1snW5rWiu4NXOa3tl5xvvl+SZOdJL+3x+QiEmZM2tjffnJ6dnQyHLZOGw5OzrdPN7Q0pZ4FzR6xqds9GBdIRskf3XZHrQVf2tawmecgMsg0rLNUpWZGpF5tJWlrdr/h+9z1Rg2EhoWZHTfuADEVaWus0R3359Mn3MZfah2mvuI4jWc1mD5ulsd8+ZQp8ys36XjqthuWlrKazez7J1ftn4siHPN+sH6t+CTUOm5WGU4/rTd/Y8/6ZOP4ZW0nRQbqYVVWSYqOtLDXVzjBedertEdn/+2Zi2Edcmmm28/v7neO9QaMhSY3GYK+zW883K2OvyO6biVN4wvfLxGk84Ptl4lSe730ycTqP9z6ZOKWne39MhDFHd/5wgYnZ6TORVPFP4dkSJk5YkR+FCMIp6Adh4j0gtN9Y1aahHnYZ7XSvZQjtHqnZu79yNqmiZdWj2KvYQq2cn9Zzbeen8ST/oX/o3uj/AQ993ITeogjDAAAAAElFTkSuQmCC;" parent="1" vertex="1">
          <mxGeometry x="720" y="360" width="80" height="80" as="geometry" />
        </mxCell>
        <mxCell id="hIOBq9RyqxrBLjO1l1mz-2" value="Dataset" style="shape=cylinder3;whiteSpace=wrap;html=1;boundedLbl=1;backgroundOutline=1;size=15;labelPosition=center;verticalLabelPosition=bottom;align=center;verticalAlign=top;" parent="1" vertex="1">
          <mxGeometry x="10" y="240" width="120" height="170" as="geometry" />
        </mxCell>
        <mxCell id="hIOBq9RyqxrBLjO1l1mz-21" style="edgeStyle=orthogonalEdgeStyle;rounded=0;orthogonalLoop=1;jettySize=auto;html=1;" parent="1" source="hIOBq9RyqxrBLjO1l1mz-10" target="hIOBq9RyqxrBLjO1l1mz-11" edge="1">
          <mxGeometry relative="1" as="geometry" />
        </mxCell>
        <mxCell id="hIOBq9RyqxrBLjO1l1mz-10" value="&lt;div&gt;Optimization Cycle&lt;/div&gt;&lt;div&gt;Learning Rate = &lt;b&gt;0.7&lt;/b&gt;&lt;br&gt;&lt;/div&gt;" style="sketch=0;html=1;aspect=fixed;strokeColor=none;shadow=0;fillColor=#B3B3B3;verticalAlign=top;labelPosition=center;verticalLabelPosition=bottom;shape=mxgraph.gcp2.arrow_cycle" parent="1" vertex="1">
          <mxGeometry x="395" y="279.75" width="90" height="85.5" as="geometry" />
        </mxCell>
        <mxCell id="hIOBq9RyqxrBLjO1l1mz-11" value="Weights" style="verticalLabelPosition=bottom;verticalAlign=top;html=1;shape=mxgraph.flowchart.parallel_mode;pointerEvents=1" parent="1" vertex="1">
          <mxGeometry x="535" y="296" width="95" height="40" as="geometry" />
        </mxCell>
        <mxCell id="hIOBq9RyqxrBLjO1l1mz-18" style="edgeStyle=orthogonalEdgeStyle;rounded=0;orthogonalLoop=1;jettySize=auto;html=1;" parent="1" source="hIOBq9RyqxrBLjO1l1mz-15" target="hIOBq9RyqxrBLjO1l1mz-17" edge="1">
          <mxGeometry relative="1" as="geometry" />
        </mxCell>
        <mxCell id="hIOBq9RyqxrBLjO1l1mz-15" value="Training sample" style="shape=cylinder3;whiteSpace=wrap;html=1;boundedLbl=1;backgroundOutline=1;size=15;lid=0;fillColor=#fff2cc;strokeColor=#d6b656;" parent="1" vertex="1">
          <mxGeometry x="10" y="250" width="120" height="60.42" as="geometry" />
        </mxCell>
        <mxCell id="hIOBq9RyqxrBLjO1l1mz-20" style="edgeStyle=orthogonalEdgeStyle;rounded=0;orthogonalLoop=1;jettySize=auto;html=1;entryX=0.1;entryY=0.442;entryDx=0;entryDy=0;entryPerimeter=0;" parent="1" source="hIOBq9RyqxrBLjO1l1mz-17" target="hIOBq9RyqxrBLjO1l1mz-10" edge="1">
          <mxGeometry relative="1" as="geometry" />
        </mxCell>
        <mxCell id="hIOBq9RyqxrBLjO1l1mz-17" value="Forward Pass" style="shape=image;imageAspect=0;aspect=fixed;verticalLabelPosition=bottom;verticalAlign=top;image=data:image/png,iVBORw0KGgoAAAANSUhEUgAAAc8AAAFfCAMAAAAfwLdaAAAABGdBTUEAALGPC/xhBQAAAAFzUkdCAK7OHOkAAAAJdnBBZwAABvoAAAneANJhYVIAAADVUExURf///wAAACIiIt3d3URERDIyMs3NzXZ2dru7u+/v75mZmWZmZomJiaurq1RUVBAQEHBwcFhYWBgYGGBgYCwsLBwcHK+vrzAwMKOjo5eXlzg4OBYWFiYmJmhoaCgoKD4+Pg4ODkhISDY2NkBAQAgICBQUFM/Pzx4eHnx8fIuLi7GxsTo6Ot/f30pKSlJSUkxMTIWFhb+/v0ZGRmRkZF5eXgICAiAgIAQEBAwMDAYGBiQkJHp6elBQUDQ0NAoKCjw8PBISEpubm4eHh4GBgWxsbKWlpUJCQj3cweEAACAASURBVHgB7X0JlyMprq7TSyz22JlV1dVVve/TfWbu7DN3mbnLHL937v//SVcSCAQIAtvhTGcmPiczgAABEnwhxLZYtN9L5MC2x99wQ1UbXIlM2VZR2frduvNBoc+Hxy5DtY+Dn9C/onpuZy5BN6zvdkPMs5kzOYncajj8zZSoG5Z3/TAuFv1OUBh2d6L5hT4RLXIaqiJh9P6xvWN/IKYfN6JxzlKIXrKniuLcbSrO1JfIuu7uZKWHoMChLyYl/J6qCHwq57jhJtrdq+xUA5PSarFOr+e1UcuXyLqGvaxJKMHQJ+NFbk81evEU3sPG5bq9l42Vg+t4rMU6vZ7ctDjvuZ++RN4l8gglGPpEtNip0oojPZJ/KyFm6WXrs6/jsRbr5HqO9z7bq7h8ibxLZBRKMPSJaLFTpRVHeiT/cikyOt6lsFnHYzXWyfXc3YnCXMPpS+RdIp9QgqFPRIudKq040uP4uzvZsbq7Q5JtHY/VWLae/Xq9WB1BrQd9crFC33Dsd+QDD0K8eewPd3dr+EHAeNz2x+N2dqXRc964bP6YYT8cO5Zg6KMBiS2mr4hglKdqAvdHGDBAZWlUhEHgxY7ChAwPthA2ez37u+DDd4eAJ5nseRwKIoi08LGw9O5n6zn0d6sjBB5IUsPhbo9KyA7VaTsmgBgkuoH75xpFP26uLk/OuKOstna8Evq2WJhuiaWVFXG1BIbJbxaIkWS/gVTDP/E/NOJ/kniZ0Ag8GLaL9d1i9noCYVGwxfIOhi4hk5nHWAgviCjSgmNJYq6eg2k0eyQO5O9QuIvFGj/Wtke4B71ZDCh5YExQNvPqsv/93QYRAH5LbkGYx3hvimQEE/oGU+oev0thRVxRInma4R+R3GEq+GGnCQlBhvv9/PVch/I0XsddrKuXVCCIjCSw8O7H9RzMZ9mRpTa72GOoCyPRcV7DkqIMV5Ank7RlM/n3Fhc0H+E/FhQ7aFCRpJ4moLuj1kjpVnc0HqKKhIRM+Oz1jORpWm3AZOYx1kYIIiMJV0d0eHlaaQVCW+DHOsgKfCb9eL88Yl82+ZmwWf5ziVzZTP5Lgwe2NIFv5A9S2vpciTxVCjqSrIz4zH/snhEhgqr567nj4prC3RFDAyYzj5H3tgakNQWR/DsbhR5cz0zUDYBR5lW3vru7P+B3aN4flyiSp+lRXJrAN9ytyRrar0FKYWld0TzVBYlyse/7/YbayBbRmrSHiJBJPHs9j4E8V3eE90GxnRS9zFAQUd18LFdLx7Nc1DUoX0FWPgdQQI67e9W8Ieif7vScty6TfyDBReCzn0yTVVhal72naj6US9R+LLzeQ98kVT4ixIlnrufqTpoQtka6QbG9pJwLBZGXBJd0Up7ItyArI0/42HTUM0dhuvJEL3J5ztfKcyUbfFhaVxJPdQXSs2qGlWcPvEK4XUSEKPEV6rmTBuk1a6Die0dSpA+6kyc14LBuPpar5ZQ8O9RzdSoDvIHfigFe0LzM6TkfyPNAsMSlCX38NV2QPiQY40viqeKn0yZHeYIgV3fbvfluhIQo9RXqubr3BoXOtsWAyV5SLE8SREYSvpLg4noG9CChqd/uHlDJvnLcha8NtB2rxy8smwOiF3m4RK5sJn87lFgcSdsPfXaUtdhi0eQgxxfEUR2XIG8L1yg+7JjrNXVPGJ6YzmIJUepr1HNrVGqgP24s9gZMptrZ/ikEwXWLJOErCa7ekg7ZAB8S1FttIM3pdDsTc0QfVH+4J71iazkREL3IwyUCc0Ygmp6Ul86OxkPfjgb9HZYlrIgrCVMdNthUD9hOwTa0WXRYi60Z44BLENqbocJV6rm9JxBZjAcqOJZSMpl5jLWRgggiwYjcSAJT21+/vr+7X0MwjN2xsdoHkBmP+6G3SwG6zXbYHgeIicm2y/0WmDAcIQiMgkxqpueWSwTWrTsoU0dlolyOuz1kOlBBF4vIt94OR/wCRBWxpUKqS2OioOHBuNsArQ7mIU35jYkIIx8toY5SgOivU8/usBsWqy2y3v4CJlseozylIBZBJJYEUyg8EbZHsW6hg3UCI64VoB+9oP5rWlmB0LyvOshvdHmmvlNyGwyQmSSyVSJZ8btWPcd9f5RFgOGCZLJlfiyIMNJCiEgUOXXyZzh98yJDrDZ0g3WbSRAzkblBBsVFGrGPyO4ZR3ha/0yCYLPh01bmMXI/wJclXNDyGLlW5zGLIGDa7c4qCtUZP9eI+92C1OKbLP9MghgH/N1kDecvVNfTuGt+wjNQfFWCmIFfjUTjQONA40DjQOPAdTjw63+5Dt1HodoKH7N5/OQTNvLFr27f3wofy2i/3G5xeulZ/l5d4cdt39FIU/33sT8scUJme788fKXGoMCPD9tiD4ZM8omv9ubjgy/8w9VyyRP+2E9xpVCqj1/5wpeY95sgk3F3B0vd4S/729DUG6yW32SjmBe7rEQpk4nU13ldXfjrZA9UL+BKXeFRLC6TcbOG2XyzB9osjov/C5C125vjGORfwSyenz4UicBpMlGTXTmQllqawpid0FfOLyaPc5tFrpRKJb9wMWHh38pMNn4mNZTBOb6tXLAmCMyaiaD7PJyPwhWbSTenOOEjG87MWn7PnMnzkKIo5aNwRc9ElKI5GwcaBxoHGgcaBxoHGgcaBxoHGgcaBxoHGgcaBxoHGgcaBxoHGgcaBxoHGgcaBxoHGgcaBxoHGgcaB26aA3s4xBN+Bzw1pP2eNwe643rZ72ndnnA+7zq93tKPPS7+E7+hf7bLqkUtXqtz2Jizv2T9O7smVIY193PgwNhvgr7JZW5dlDnxrJ7DMnfaB3TRZ1WTVljgQPEGpj635Lux7kY50GVWutviHtO7JW60Iq1YxIGp+9HwBOj2ezYc6Ke+kCtzOv6zqdDrLuhQRltkTkPc59NERryQZurXEHeKQzfzfhJtsaRjQ9ybEVi5IKu6o8PnP5G6XKz29kwOVApqnP7InlmAlmxWDuwqvp6Y4Vo1B85alEZsBg7UwS2c/jvv3u4ZSt5IKBzoam0/g789RCHTgm6EA8fqbtc+oDcismIxzJWYxSj2pb3GoyZqi/NkHKDLVapyX8sDcqpStEiPz4F6ef703UWlM5eG0FozgvgtOYnkhYEXFeulJa6X5/Lf3mVPeKvgSt+6dwWXLo7ibtKapLT+9/+Zmlcr0WjyLHFntnf1w8rN9u1nFxzl1uQ5m8xKhKqHld1hfL/8l4M72rFEVHvX5KlxZf6w2mEl3OPXf9eXVxqVSncNea4u+aCXCvuM39XebQ4D1dVyAzcuX4C5c7PpGm1k7jI+Nj26P7MiU7Tz7j6DadDxfMytyOakKE2eKbtWdSMWuPEL7qpc0+R3cXVnmsP1Qpo8Fd4eahbv2UUp6xUgLsj1RjC3yVORZ9VSErsoZb/raOHJjWBuk6ciz8V+esrMLQFcjlayJ2PuNXjf9FtNnotDurEsjDe6vUqwOoUQ93TMvYY8w1I2n+XAuJxYS9I7gY/LhUFcWPJ3mp7b5Pl47W1f1nEH8Rrsg26B50mY2+T5ePJc7EpmvL3svri80yLuaZjb5PmI8gQzXm46azyEK/t2YCJyi6tPwFwz/zlvndqtFVl+rtbmnqs4wn7pvp3mVQfg6xB3YudoTGxuf+vzBY5qXXTchZ0Tk2OI6M1PaVto8izIE6w+fbi2etwqR2Qs0PLnEfdkPbdUglPfNXmWObY9LN05UkO/2fTqOAa/ngJxnxBzmzzL8oS3eI4Urs/ic6WUBLTjRSBunZ7b9CGFlTcRBDaFEHGrMLf1pZsQnlYIWnMUIG4F5jZ5aqy8iTC0KQQ6Lnqn9NwmT+TSbf7AphAj7iTmNnnepiyxVGhTiHRcDCjac68hzzZfhmyf4WesDIGOi1SnMHeGnAMS12gjQQavxUOriQKrgqn5CfbcOVjV5DkHF5GGschHOi6+KGIuRpjz1+Q5FzftKRoJ4j4u5jZ5ziVPsimkOi6Sf0TMbfKcS558PIaCuBnMvQbvm347mzyNTSGxKhj6mp57DXnOVptGaEE2BR1xVcxt8rztRmNsCopVwRQ70XObPG9bnu7AMEXHxZLHmNvkeePyNDaFHOImmNvmP29cntamkEXcjJ47Z61an5+Tm+5kzgzippg7Z+5Iq8lzTo5am0IecRPMnTP3Js+5uck2hQLiXhlzW/+cliksCMOfvWawGJ9tChmrgknLem6dPrTaHjD33bbqpIv69fErWv5PV2HSZRYd5mJOJLwwsMihJ3652u54wea+36wnm7+1KZQQ12HuJLHFuIfcj7QEeOjXm75m33gtw4apK0lqCT2neP0yWFA9bncTB4KxTaGIuBZzJ+V5XAZRRmhRuT01pzP1FcpTu3guf02dYanfDVHkPWJuIKxUIKv1IYHY3J6aNPVkyOuTZ69ew5K7RtIykG0KZcQlzH0odrb9UkXX41wXyr42eeYvbtWuefXdwe0cDHdA+AjsOr79jJ3pczykndPEypcL39fPl11DnqO6GySt3ROEbAv9AK5hTpDQFdHZFIo6LkZnPdcl9Y5O75wmQi93E/s05JrA8Cj23N5rtJF5yii3iykU1UlrE8/ZFKYQ1+m5KX1/2kb6DkLkbv8oQpNnxBDrLSozEKfwXpy3WhC7ySeZQzPB/rQNW5zokX/f5BmxyjJ0anC2yt/Q620KRbGbjFTMnTiMAzq2Oy0nLn2TZ8wR9E+gLUY55iXubAo1hJS1YpOH5RQQt8kThRP/CmjqouYvd/A2hbJVwfI+wdzJw6ygDDkkb/qtE5B35JjlY4CrgLjeplBEXO5LEeZOoi0Wo+qK0qC8sed2ddG4pJf6q45jLCGutykUEZflGa3PzX4bg3oN00cMBvETz+uRpxhBJlwQAYX7Ir1NIY+M8MbbhwTm1l6fRjtORXFOdb4eeQp9psikvIobtIjsx1jIU9gWjtHpRrki1JYyl/71yLP2PoD89JWwKRQQN5j/dHpu7fVpe1XBPnX+Myft88K76qv8zqN/VqpV7ZepcLGHsCmUEDcon8Xc2takw73s8wH1R/HcZJ+vBTzYIphlkrQpFHVcSYH03EIjkXHBrcJ9k2fEpcWi9rqO4oXLwdetwjxBpUDMDXp2UjYZoIpODZSpruq+yf4pjradqHzepGDPU+D0VQNajHzcvPNKL6fOPFXRqYEZAvMHP3N5vn9Pa6jUf//8rQz+diN91r0JopjA7//2Sy2bD78NzxakdE0fSthX3z8/+VHVMYmitClkdFylL62+/tunSYEyAQ9ffLM55udhM6lc8E32JVe6GR2Fueool/Wbz/PGHGlT0HXcVJ775Ref1OPtx+Vvjsuqu2KicpP31cgzP6yM2bIcl8fsQoLApqDquIk8+/XD/R/zXT7K/tB1sFCh24VLEKNIee+rkWf1iAEGqsNmtckIILApqIgbyRModV/u9GGlJhYYqA40ZtkezsHdVyPPwrAyZCsOVEFz7TOYG408Uh03lOceFixtvu/0YWWYMfmo2W3NIHTlcLfNl6WsqrW44UAV560yKytDm4KKuCJvXGLWf4Un0avLNEVM6zTN5YiX4uHP4m7YRsyrx/t/m33+WGmFJMsc3nuVwdzApqAiruM0Ueg2O5BlLU+seWjHAl0sEHfLa3pdfldy1Jb9StlnyMr1BZkoGGxHJISjKubGdFLEZeqItdCB/0QGxLwVkaPj031nd4D6/Fsd77+p7N6cZNbnbcpzsa7iid3JYlYKqJgr1ykg33IzZ2Y5b98bCM2LXfLeLUoZg5sq+8/O1Xcl8XPdNyrPVTh21Gvn2G5uGtQwN7Qp5BDXpuw2drt+1VISsShllM0Ev5/n6bt6LQEIBvhVrnu/UXkujtNTZsB+/lnJKpgbtwvXBiip0V0M1kLn7XjE6q6i5AzSZ7AkZiX22Rj91uu7aVIOqeI9XWkBwLFe7vYVpqib3e8wjbhi3yB3qBRzWULMwxBxSZ68dQJE7bYxhGJ3iYUjtAqhXSH+TdoZpuW5lVdaoGTFlzrO7sb9k4gbsJw7VIK5kU0hQlyQp0sB3d3bMUbRWFRGxffNGrtCHLWMu1PyhO2KUSuBnXXKDECc6236JxCXJWgL76QbY25kUwjtuP3AWItouzB73YmiAHONPQHaUgRrV4gjl3B3Qp4p2ABxbUNsnOeN+tcZMx4Vd7gPGyojLgxiQntubFMIdNz+jTP9Q4NYyXmdPrdbELNfbVL929kVYnZmcbcoz9x2xWfcRfPgolTK91eHoIaxkU1BIu7qy6+Y+dgf0Zbgf3k7f+YiS2tX0OY/ddw152H4HKUrapXyVXF/+k2uB+PS58ClWypd1yEuQKq058Y2BY+4HmsJbeNPrbbbHkuW3XFv7ApGZ+Yq8LOEuxxHPI8ON0QgO8edUn37stjnmcDTPdUuqgYG+w+C1h3bFBhxWa/F2mFjSL60ej/M91tjV9DlCXlkcTdl75QyKMe7Yeobl+cCwCXS8fa56TGPuKE9N7YpGMQNUJm0n3ioCoyCrhjl3ilHZDiOkl0hK0+IpuOuS+8cU4O1/M6dW5fnYjziqT92JN0dD8tdqAg5HngcpSCBuamg+l5iLaHtIhmpEhmQgDtHCs6VgkG9yDBxol2hJE9oIW5eLUnsAyZUe4iY3St58/LEWuI5UvjbHI5Rd/E8AJfXcSmR03MVSb01cyPWikafXsUiYKjjOB5zX66P2abE5QC7gqYP8Wt6OtzN6UP53ufp5BY21utDK2qZ/iCyBdZxTRNbW3JSZicGzmvvkIgrMDdWdGC48c70WdOXCG29LcEz7QyXbleICRnczfWlnKwklRqZy/ipO5d7GvPpQoSOi4VgzI00HcRaE9PIk2wuwpZwUfkzdoWYJuLuL7qamsXSgEZdrCBJ6HkO8gwR19kWQpuC0WtJRSR5kmgDW0JY8RN9WbtCTKf73X1wlB2/t9Pk7M09/WxELkY5/DnIE5ZnhZWwWqywKbBeSzsgUJ7GslfWc0KiEz6xXqEcc+g1fbe2ZdWuismV4VnIMz3VgDDX2xS8XovdEuVJaJt8YnNcqAmX6xVK8ZGjqb6raG8qEX23Yv182VXkOakwqlUpBMaIazGXbQrShmAG5fZDWrlgqZAzv+qHcL0Ch2efTt81MfLjsZCCW+4SBF9FSkEORY+0gBcjVr+MEdfoucamwFhriBHiGrR11whUZ5OPCH0+WK+Qj+nfSNytW7wEabmNejLgenHyTBGX9Fwcn3isNSzArmnmE2sxLmBdxoMYLtcrZKJFwQ53aw9vgFppmPLy5JkiLkoSTNgSaw03N4NBW78uIeLyOV6UJxyHVTJ86GQN7tYLRI2pBur5XSN0frzFLQhpSVcfvlXMvt37DxR1JluCyZbkafdBpAUphwDu/vWhHMW/HbSYL1CeGuIu9j9+ofSYf/8zsWcuWwIRszbECruCwvvhzX984yVWdg1vwzVMFDtnQ0xJKbmnkU4NmV2/xQIoiNuvf/2Fs+e6Qvaff4ngWDvic+mqHNN2hZijq365W7+Bj3rdb+i76HD9unQ2Vpz7SYkfN3KMuKTX7j7GiAvT5Z+hnjSjLUHWc9KuEHB03K4327HfBYGSXOImJW5/1s42pFWfUZLzowdYNcfma/RasCmwPdeGb7oeFaJZbQmyqlN2BcHRYbfBmdbt2u+ikJRUtx2ojseNgrtqiiBQ5B6E36InQFzWa2G8FqxbAFGC7gI6rqb3z1GrKbsCcxRxliav6JtbWmkSlMqrfWfhLuce0LxVj0dcb0NAm4L3kd0WdJdu+a8Vy85PqKfYmTBhVyDdxeAs0e/IEl/bvMKBKuNuvT5UH/OEyl+razgdV9oQaM7TYa6xJCwW331+Qnkroprxiok4aVewOEuxO7NponbwhHuZ5c/g7hP3umuMP6mSFnEZaynMWIEs5rpP7LL+/AvJvqxbyrNsV3A4a0rMDczjaDYPfBGvnYcgwN0374qJrv3yavIkq4JAV6yIVXwo1NptQc3b1Z4dVsmLQJ55u4LAWSLsP7Z12k04p+vK9svX55zk4JJf6riePAFxJdZSQfnTBJjLnQH3OLiuemltTCY4pPU/3a4gcdbENSt30D21WNPGD7MxgTgKOVffZQoXPSvlCXcM4sIkdTo/l/94/32s6Lg2vb//T0o2rMiWkF/OSrHgFjrKXedgnH/YP2Epnt+Ob6MyzkqNRC6Rnl7el1/gR9/PKn1X5h7XQfg7qvtuq1jXRCx21sjT3BKJe1r9zZGcPv9cbd6kHyJep9B9YmwL/UADhRLi0v7LPebub47M56q9Ce0KAmeF7tIHQp9afmtWEGt5uTDWd11A4hC5J+9sAC1Q3WLd57sr8+hX32IueLNrTVNBrE1xlNcpANqSntt/amYb05i2RjAxI29xhQo6oLYxKh7CrhDgrOco2BHkbxpxJxAFiU3hrs9dZi3cq3WwQBXvyoxUahG50rla72LQBKPA9CiH9NrAqmAyNG2BxId6bv/GktL5M+7StpPbU1OoEKs6jLMc1XE0+cZOIW62/TFp8yzirss9TON829TerfHDxa9x6HtFclvpHEXWa71VgV/ROgWr20Ks/q1tLSri6rcYKnvbmHruiXYFgbMcjTlq7AgcSk+vHQXB1qOWVosIM79Z+y7nrqfL8Hi/vKCL5jZ42TVBekEg1Ou1aTtGm4KDzP7+D0wkjQlXGGaAvbhhjwkGz9Xb35N9Nghki7i1IwTvxk2f4JKLIK6icGF5Rw53i/IMDKOS9njIcUXGUt1Kh3fxoPk4d+wQNoQUccGmIET3xc9uO0qMuF3hYwFdNM/tWL+FAUi//L02+2oKntna39OBSHHdwJ/drkhxVSkVcVfJYpG9+hQiFz93oR4QkJ5QCoRUwmTBrFiCuCBhr/YOO0bmRGNMW0KQy7bQnMJhjcXZ7D4I/rgG5NGT+VDrnyCXWpUnvM3jrkvqHTnemhily90K8pxS2h1q+nKAy2OtCU6K1v/s59BxXYKz54YxQ1+QBXkOWZ0s6J9en010Hkuz8KVU9rnmP0GWXE6e0K9rdrYRFdHiLdXwIU5eCl/AmsM4wPmnVDy7rt3FNw6BtSYg6Wdf3bskZl2C+1RIxE36tUtkHflG6uUZ6rOpXQFJSTtCnAdUMRjHjzACdt+HJLIJyMsT3lfirt5TRIbuZDQRZpxZeU6gLaZOu5BHT59RJBlgkcNDuy6BUwmtMWkFnh67so3UyjPVZ0O7gqET2hGYtn/CcHtpdr+SXcMV3ceIXEV5Qly50jdKyt6Ur/yGn/nLT7PyrNkzJzsUZhVjrck+LN6mY5sCmuftXk2LuT6md3EV0meukdL8p8dZkVDYFSi020Z2BBFXOI21sep0MEDVSZEz7uZ2ikYdQBTEO7PXTee+QlW74USHwqwSrDX5B30NBcUKN1jnGRst5nIDqakSNIfMcAb1WXVJUqz6DN8V1GTPvPldtNI305MDdmWzzl83rSYZ6yoqqTJqpvSEdOhLz+cpwFCU5WnXLXADyUoqIB4fEWZepjjrE0XrFT5ja4aP8Wiu7eHLH9QxV1VPglVOauJc8fW9U0lssSVHx1qTwqOn+dKjTQG+JNBVnTytnmti1l6f5gc+rmQqzrq34T6I7u07/+bxXR9/UG+mqBTUabsVvc5SrqfLPIO1JrWDECtYs04BO6GQJ3x9QXckxI1XcuTKEJcyh7MivdgHMW4+q15qKyjM5gS8jXa2IWnRRYo51a6KMUTMrEeRIL20rSSPtYaERVweV9E6BSpQcHYFUiHErb0+zbQLW0qHs2I9mFIBZ1eAj2lOI1GSVQdN60NMyuQe67uVyJi7CVDXh2oBDw4+wdKVsNaU3nRMN67CdQraHgfQczFmbWsS6+oFzso+z7wTT7YrFOwIIvbJzoyWU6DD+q6JUo2jyvIloKCPV7bVRnxkfRFrTSkJcS3aQgisUxCyMFHoP2DuZuiCuWXxNnFauA9xdkKedr1C0Y6QZFQfcLo8gbbA3dq2vNCvbNDlWQt4OPaYwlrDCkBcRlsM2Jl1Cead/I8n2TzooCGjWTeKzuEsv5+S5wLtClN2BCZ28vMseUIuFnf1Zq6VIlz+yzF0eeqhnEY+17/kpiFkLHD3gTG0+yHbDvu3HyaH5Ey7HwTO+kB25Z67Y5UdIZe8GH6uPK19N2soSDNVhaQGZlA4JblYvP/pAc5Wr/g9/PiJjPXtN+T7Skn9n3/7o5aTFnb49k1qT53sn4vx559pxFR/doWWuR5WL08l9+7dt3/XySqhqujUwBPk+V/v/0LLlSb/ffb+Sxnn/s/ke/MrGUjuTz/58aNSejXo4a+b/DyLmoICuw8GAup5n6d1/ps0dzD3v/m8mqAuOjV59ZacxfrTXekcaU8d9pKJ0d62NzaFtC8Ny6/fnIC3OGVReyAJFwbWI5h9EClHOcpjPKPcVz3OVNTj7XiCPKuVZhxabN0wpMAFEKazKkA0ODWRpJvIs9/8/z4YVhZo8j3f+8PymDPlKslpPQLZFSKOKnGvGSRzB6VubdYxZvWKuCjVA1VIWB2X1LHSyhBbCtJtvR0XbAlm70Mkz3G9+/VmrNfxuPK4RKdWKbZGebQrSI7G7Lq+3+cOOOuO+eXJisn86/sckGJGTVE1A9VxEnNNF3aIS+sSUAChPAdYCIrzdM6KOJG9HKhW4y7bEcCu4Dk6kdFVXtvcDc66HPRhpXvtHYrx2r+MXbWthAeqE5hrBcmISx0QbAqgo8tZAhzR0OxCbdPj7TC29BZ3wzYS18zbEY47RcOMo5/sr28jmLvHWc5IH1byW//MgFjmoxpxypOJXK4fFzHXWRIs4prJyciaDlg7wrQZCrgW7pNWR7hblKe0I2jrFaL6ne6tlyfUU+Csy8mx1IWojoySkZGnRDKVnAkU0UqY6xUm6qh226Bbp0C0EGvB3GRU2zosUaciuv7+d37BWVz20I4Qr1eIY5/jr5ZnhLMur0ptQkOL9gAAE+dJREFUPRMtI8/wljGXV+wIFqVkMdd9NgFfcAs0d37ZvYz1iOdy6xgtZ9NFyfpfsvou2+Jt7Hi9giBytrNOninOugzrRixet3QJyZGTJ68UCGNHPma/Dc5grkNbjIblMENPhBumR1gLX1NWhPJLSTgFksqUHfA2o+8m+xqi9QqC+NnOGnmqOOtyzDRT9x4drIkEgejJ8ATtrUncOCCRuY65Hm2RANzY6igvRzP/abDWoS3EyslKFCG7xs3Mfyr6brKvodtOnq8Acx9wpQXuPt2six9mLtnk/KfD2dzsa1ZWnAU8s9LJj9p4bZagEjmVGArmRlmPy/du7L/tiUVsqZfdfbqRTseI7AzpvgboS2K9QlQ78kJPcldawJ7m+lGuRgzCJM5me3IOSz3N6Rg+Lrsc+HFA/IwEZV4nmBugLcb51U+O0Ph3xEbekRhkmO19nDi7/JYj4FPirvKxRI669QoynXXD9rxIteqUDYxKwkzQEOizWXnmex+XK4S8TG5xsOwu8TvwJ2hr4sSYm2S9fufwdtF/NzDWSrRFShOIW/WFRToOd9mOgIH2RxyNdCR+B091u+LZG/YcznIOeXlOIe40NHEewXN9DLyhp1PQ1sQIMDfpxKu1KO3q/o2Td9x8+nQjsS/BWCybj0cuwl1vR/BvDUf1fRCL3HbFszbsSZzl/PPyhJYU4QKnoecxq/QE0RJPrkYYMbubDt4JzE3QFs9e9Og/3v8PG4gCtKWiFLJwW14oYvRPWQ82Ht/S8DaKaTUS1a6gdk6TvthFNX1ImXQHSjl9CDMp7HAtb1fM60OGrN5FyzQXHnOTdka2BO60w/IfrqkFQ1nMG9uFR2YTYv5DD+FWIIPZramh27XDXY4mnspwdy9vvBRRyTke9ILhy6TXJTgbU1P92b50LK8HcfxUqS50cDlmsZapWMxlwXEw9GtsQBZxUa9lm0KMtiYFa74+PbiK3QPeK/I038hI3/VEU1Vp6vOctFNHLJSnhrMuatmhAsTkdsUJeWrc69aFrehcRsLcFG2tLQER1+i11qaQoq0hBF006oqryf3mqTydHUHqu1xSfCZ2hakjwpSaWXpSnjrOyoxLbuii8Vd0Yi8xUJuUJ+gF4l6/EcdgVcsHEHPTVsy2BBh42g+aMRYpaGurCncLOgHhiS2KmhoxxUXn8MCOoONuZFfQd8YwPXymyGPfOnmeh7Myj8Ug7srEg4KWceMOYpNnWp4QDUbSywOu3xK8TUnFIVtlewhvNBrvv6a2txpJwjraWoK4i5Zyx3tI40wUfyzPpFk53BXzZYFdYWSLpEKdg3KfHCPPGpwVuTPR9Em7ToHzcPFp1QlhVfLEbDpcrBVhX5q9DOngZELpBzdvuhjXv/tAr+AuI5gfyqGtT73C3J1dyYdXuNKPo7MzuL4EZKRdYQptMdfM8JsKVIezMndKlvk3Yt1j5M3EvWbwpvN6rs3HfhAQaw1gQV8CDSmPtjOULwPQiLvBfiRvV5g8aYBKlUPcapytlecMPJiDBNU3sC3wHgfSWo2OC/JcLYtoe2lRNDuCpbn/5l6uI3N2BZ7lmcgagCX51eAsJ3pe8rQaoLAt2Hsc2F5LVgX81r358iQYZ3bUPeV6hCTF8BCsI7N2BXWaPEmrjYvqcJZJPS95sm4rMJdsCazXGhUR5fl93WoEZsNJz3A9QpwUOSr1XWNXYB08jh37o1Ux1TjLdJ6VPMXXxWEu2hKEhQARF9aDHbPHunHFT3xiG7E//03kkOBpNUyv727Q2hGtawpSSI/sxx5n66VUpd/KDGvc1fptDTEfJxhvM+YuR8ZaE5EQF3Rbv07BE7jA5eXp7AhT1NjOQHaFarhw31mJs/XynCrUWe+vJE9GW1Mmg7lbZ0PgkmInRt22YrjHSSqeTp6BHWEqocFdsCtU72W266AinH2R8hRoa/iImLv8KpQy2XFJt639Yk3JxLxneSZ2hKnkiLu/WX7M29ojAiA6j7P87iXKM0BbU9Fu89f36YTm8Alhll3AySy58GnlqdkRpigD7n7zxcNULH4/vDGXZLGfni9RnnE/xIp++m9fK8OSn/5MTOAVnOS59J+1I2XsCJK6MgO5evff1Z+g4YPXvBxZbf7TvQwcSu7B+7M85fnPs0iqtur+k++dnuupHv/rrTHjamNzH+0cV8GO4MjFfWncgrn/01Pw1pE6wxHnfgaJR0mioC3ote/2ct2CKchq8/Aro03WjhGqK1C0IzCVkKN2VWwYyFG1ZzQA1aKUwuozKlG5/rsUbcGGQJ9IYVugYqwHui8S3OHeh8vLWLYjMH3BUa+lymElR9SfFzZCkbtO/zZCE92WbAj2CxlgLui2OL9CiMvrFOapw4QdgTNhjhLOuq+7G1ZytNzzwo8E554jfxvhCdoaGwIPMdm2AIXFWTJYH29Wh81oUxhWtXYEo5HEuw+qJlmx/OqR5y9NH4rR1thr/QjTYy7PkpkOzQK/vFXCHc71s4UeZ13GPEnrAjIO/ZTBJ+511cp5plJxcIy21l7L6xIwusVcN0tmENdLPCZ5qv/hy1pxhjjr8qnEUd7L7NKR42XJM0JbtteGTZ4wV6xJIMSdzaYwvn0IOZzzxTjr4tUtkFrpdt6XJc8Qbd3cWLRQDTGX0Ra5SJ16LpvC+jtllO9kxQ4FZ/lVcSmJi7TIXH/xTOQJ99DDb2pJUoi2bm4s3eu/ff+OOGPOTyDEpfMUPLsCF5xdBL9jDY7uzJ61IHnsYZzNzViF1YhTG39uUUq9PEeqFDU+w10i7APhqFH40aIp2IgHzMf3U4E1309zxwGuSnKXHZg6xf8DtGWshUjpYe6rrz8cMbW1tRLiZoZzK9h/uaM7E4+4fHFiUViFHcHjbJb3ucV7vsIV11/4yBkXctQYJ2m5m4EVH0jrwMwSPFqMR615KnCCPVCS/fIgmQhLYFO7ui2wRFuHtTiNklRoPRg9l+dCsEeoNoUO9l+KbgnXYBZHqpN2hABns/IUH/ek6CYgg7aZ2LcTrG14yG13kDDlsBaqkn4ZzSwZiJ/lSYirSEqSsUwpbXeYsCMwzjJ7s/I0x+ZwNOWZQ1sl6k0F6czTtyMJtBVYC9VJhpa2+YOey/Ikq0JiU9A3JGlNzDCtbEfwOMsszstzYgnpHGjLhXjEZ55zWhf1aCuwFkqbjixZtx13X3/K1cHOHQle6Zwmtt7KQC8VyMx07TPAWX5XkOdqWZhm2RcyYto3+OyWpLOoJYMuGoV7tI3kIG0JlMZZEhaLP35gESDiBpLXO6fJFBqaM7e6YvB6BNfn/RucB0sTLHL6LSaEKykzuoWaucur0EZcnKdxGLtNNu9o06RD2xBr/R4HRyhQNrw9F3TcQHHaFPeqpB8wtx4hlmeKs64oRYe6YU/bcBdQuV15TuziiMTNaBtiLVQ1siXE5yR4ey50cKE5+e4esMt5EgXTrUcI5KnirCNSdmh7avOfIEvrZuU5uWfOTIzYajD7I6yFAXA8whVoa9LyHBo0EG9TKG33oWSxSuLXI3h5xvqsLWv9Y4AdbRKnh77wCTJkb1WeFXvmWIZQEYu2MdbCm9iWEKCtYQFjLjQQZ1Pg7m5iaP9DxBV2BJbnuTgbZIY7Tnv6xuO5UjvtKxzET/fbh6+fzDeBtlgugbiG/QnWKrYE1m1Nxcz5YIy5fc82BdFUshyQiCvtCGRyqcLZuhVZsPsVzwdz50plC0Qv6uc/y3Rmfhu2/gxxh7iG/QnWQjLxRSQiEdpyXzKYCw3E2BSccpXJmIIFgkR2hFqcvVVsLNX6vHeCVyUC9mAjYr+CtZA0GlLGaMvytGvFho2xKUyjLZbK2R9CO0I9zr4eeVYuXbPKDrJfwVpgeTCiBH+Its4eD2+sPZfufUh0KHiv/axdWNoRqnCWab0eedauoaE5XURbDWuBbZEtIUJbKU+zbmFc/gOI1V6fZs70ZTsCtImM3YDlFz9fjzz1ufeYHyAPGPQD2upYm9gSYrQFybF5CEmjnjt8gE6XOXs5yZ7k7uwIjLP15yzU6UNJtsWAm9SHagGPTnrfdDrWQrUjW0KMtjFjEHP7z7fVt0tQMY0dQeCs+ybH5B/Ff5N9Pv7sZTkBi49h5jynvkTNIkHblOx286ef39decQBwDn0Z8DnE2SbPhK+1gAc98Dcf+PzahEpkS0jRNk0BmPuXn/5SvakGltfvklsSmjwTvsY2uiSCC1i/f5/lfmBeT3VbRyNwjLt//bZmQRcl6h9+S7d+BRSaPAN2oKdenl/8+A7XKqm/z7+TwT98Ln3Wrd0X+b93f0wKlAn4w48/pBa4enmW5ssyOU4G3+T3s16en/8/WsCk/nv7qQj++KX08Qvtvsjfvf10kms2wsNntTHVeDfJe7WkFwbWy7OgsoZKlR4x7UtyEcpkLdLkk0lkhFcjz1pzQvHquMCWkNFtE4GgIbfWnFA/UJVCFO5XI89Kc58yu+m5FexxyOm2kTyN0S8a5niSicsa/JLwyoBXI8/qPa0hpgZsDGwJOtqG9j5jIEIatWKqH6gGJXOeVyPPhbLcynFBOvID1aCTZdAW+rec/eeFCm5VrsxJcx/VoVLU57WENuzV6LfJtGWOKXk7r1yXkEPbgCpPakNgLdwf1BV49fIM8p/Jc5t9Pvj45WuaB7zAlpBDW0mYF51gWC3c67jc5Cn5at11K4blko+QiFyXkEVbkcRhLYVVLHaBeJlFKU2egq/srFrxUViUItYlVKCtwFoqQNXyCLfahctsn02eEUPIm2n8Mmq8ZFK8k3pvCW3N/KfEWkNkcrEogHIOQtr8pxCEd+YmwXyMPNrKdQlFtKW+FGKtoX9QVVefdxZtZZQp923qLlOlPvP9JOIW0FaoU2W0BXnGWGuKO3VBkbgE7cz6QbJXJc+cusHsKwlK2BJKaIv2hBRrTQYT93tm0ZaLV/N8XfJc0OnbOb6sCnvShS2hiLYgz4csrBfufIOPp9/ekCtgRfgrk+d4OEjzTcCg4o2N3pZQ6sRAb/wmb4jKb9jDxaHHoDSBp+lDATukJ3f/WUnSqHk6GmW0zWGtTZ7ZsIdbM+WyQJeZdbTxSswR79fvJyx2TgBRp5uW0VbTa33W4NI27GHnjLcSB4mqrb9hqrl8t47haRctd07gi7MlFNFW12sjtqZddKJzQvrWPyMmht5VcLUd3ndX3Dgt9ziU0HYCa7kMID5xYE3Xwx2D/Cr3bPLMcYbDgY1LWsAFog32t3KE4OnWJZTQ1mJtMF8WUPEeOFBqA6d+Vd+ZeII8qVL5E7rUY7smAm8db5mvtIJLnZ/iGPbpbAkFtHVYW8t7yr2kBEWFqPT6SqkndJ0VWJn1s4nmbAl5tPVYWyvPZ1P7F1dQZ0vIo63Qa5s8b70BsC0hi7YOa7EmTZ43Lk9nS8ihrcfaJs8blyUJyNoScmgrsBaj1+i3p9a69flTOVaIb20J4YkGLn6AtS50ZkeT53wM5XUJOtqGWDtfriGlJs+QH5f4rC1BR9sIay/Jp5S2ybPEnZPeWVuCeljbo2AtlrbJ8ySZlSJbW4KGtjrWBudhlCif8K5+/vMEoq8yqrUlaGibwdrWl265oRhbgoK2Waxt8rxheVpbQoq2OtZiTZo8b1ieZl1CirYZrG3yvGFZYtHIlpCgbRZrMUnTh5ALt/kztoQYbfNYe61aNAyfh7NkS4jRtoC18+SaUmnyTHlyRgjZEiK0LWLtGXlUJWnyrGLTVCSyJYRo+/hYi4Vs8pwSFbzvjrh2qrAYjGwJIdpWYG2bL6vg/dxR4EB8uOUP1k75yw7SLNCWEKBtFda2vpRy8sohA19YQfmAbNUVsGRLkGhbh7VNnleWXkxeW46ubR9BW4JE2wqsxayaPGOGX9ev7xVRrooDW4JA2yqsbfK8ruwU6lpPpGjxC7QleLStw9omT4Xj1wxSuqHLrlsG+0jAluDRthJrkVbTbx1Hr+7w92BoWY0HsaUWbAkObauxVqM6R1j7JutctJcf6S9x167fzQK2BEbbeqzNEb40vMlT5eDEgRRwyp479RhsCYy2J2CtmusMgU2eGhNl99PeQ5hD3N3eou2TYy2WtMlTk5cTlvbShI32hmmwJRi0PR1r2/xnnr2zvvFgWiA7GMTttwZtz8Da1pcK7J3zlVB2CmTNCpPln3BlwllY2+RZ4O6MrypPFF4dIM9tj2h7OtZicZs8ZxRagVTtBQ940hAcrQBCLR4JlM2pyTPLmllfbLIHg4XZwP3lw++X41lYi5SaPhTy80q+2gO/8aT39ffZMxWvVLoJsq3PJwzibX/JizgAhix/78/E2pjWXP4mz4STAKOVv80fvniXP7Wxksi80Zo8E346S17yJg744T++FHb5+O2T+Js8E7bXy/P+vy865WlFJ3SRYX+LTjp94cLAJs8L5Am3XV/yG+mELlKmO3RS47gw8JLyvNC09f2Tp8leKCNeSLVO0IcqB6ovhDHPtBqV5j4w2uYvMHumVX+Rxa4WU/VA9UWy6flU6gR73/Op1Csuaa09vsHt82gk7lDicnFpvqwcpb29CQ7YpSQTZZm+ZWyCQHv9SBywS0nKuVUtSimTaG8fiQMTq2+xFBVLAB+psC2bSQ5UXPhWd4vuZE4twqNwIHf9rcu84s5VF7c5np4DEzf0Vt2J/PS1aCVgDozL0qz22NCWGfVcnrBfMGttTy8Wey61es3l7DNdVL/47zVz6pnUXe+irXM+E/EpxeyX8YIS7YgMJWELuk0OdIeNsM53x0O40/42C91KVeDASOdI4XKtHVzG6XdlF5K0VzfOgRUsv/tHWzl341LC4v0fx9K2eYyCogAAAAAASUVORK5CYII=;" parent="1" vertex="1">
          <mxGeometry x="175" y="250.42" width="173" height="131.15" as="geometry" />
        </mxCell>
        <mxCell id="hIOBq9RyqxrBLjO1l1mz-22" value="Training Batch 2" style="verticalLabelPosition=bottom;verticalAlign=top;html=1;shape=mxgraph.basic.rect;fillColor2=none;strokeWidth=1;size=20;indent=2.22;dashed=1;" parent="1" vertex="1">
          <mxGeometry x="150" y="481" width="520" height="180" as="geometry" />
        </mxCell>
        <mxCell id="hIOBq9RyqxrBLjO1l1mz-30" style="edgeStyle=orthogonalEdgeStyle;rounded=0;orthogonalLoop=1;jettySize=auto;html=1;entryX=0;entryY=0.5;entryDx=0;entryDy=0;strokeColor=#808080;" parent="1" source="hIOBq9RyqxrBLjO1l1mz-23" target="hIOBq9RyqxrBLjO1l1mz-29" edge="1">
          <mxGeometry relative="1" as="geometry" />
        </mxCell>
        <mxCell id="hIOBq9RyqxrBLjO1l1mz-23" value="" style="strokeWidth=1;html=1;shape=mxgraph.flowchart.annotation_2;align=left;labelPosition=right;pointerEvents=1;direction=west;strokeColor=#999999;" parent="1" vertex="1">
          <mxGeometry x="500" y="390" width="30" height="230" as="geometry" />
        </mxCell>
        <mxCell id="hIOBq9RyqxrBLjO1l1mz-25" value="&lt;div&gt;Optimization Cycle&lt;/div&gt;&lt;div&gt;Learning Rate = &lt;b&gt;0.6&lt;/b&gt;&lt;br&gt;&lt;/div&gt;" style="sketch=0;html=1;aspect=fixed;strokeColor=none;shadow=0;fillColor=#B3B3B3;verticalAlign=top;labelPosition=center;verticalLabelPosition=bottom;shape=mxgraph.gcp2.arrow_cycle" parent="1" vertex="1">
          <mxGeometry x="395" y="512.08" width="90" height="85.5" as="geometry" />
        </mxCell>
        <mxCell id="hIOBq9RyqxrBLjO1l1mz-26" value="Weights" style="verticalLabelPosition=bottom;verticalAlign=top;html=1;shape=mxgraph.flowchart.parallel_mode;pointerEvents=1" parent="1" vertex="1">
          <mxGeometry x="535" y="534.83" width="95" height="40" as="geometry" />
        </mxCell>
        <mxCell id="hIOBq9RyqxrBLjO1l1mz-27" value="Forward Pass" style="shape=image;imageAspect=0;aspect=fixed;verticalLabelPosition=bottom;verticalAlign=top;image=data:image/png,iVBORw0KGgoAAAANSUhEUgAAAc8AAAFfCAMAAAAfwLdaAAAABGdBTUEAALGPC/xhBQAAAAFzUkdCAK7OHOkAAAAJdnBBZwAABvoAAAneANJhYVIAAADVUExURf///wAAACIiIt3d3URERDIyMs3NzXZ2dru7u+/v75mZmWZmZomJiaurq1RUVBAQEHBwcFhYWBgYGGBgYCwsLBwcHK+vrzAwMKOjo5eXlzg4OBYWFiYmJmhoaCgoKD4+Pg4ODkhISDY2NkBAQAgICBQUFM/Pzx4eHnx8fIuLi7GxsTo6Ot/f30pKSlJSUkxMTIWFhb+/v0ZGRmRkZF5eXgICAiAgIAQEBAwMDAYGBiQkJHp6elBQUDQ0NAoKCjw8PBISEpubm4eHh4GBgWxsbKWlpUJCQj3cweEAACAASURBVHgB7X0JlyMprq7TSyz22JlV1dVVve/TfWbu7DN3mbnLHL937v//SVcSCAQIAtvhTGcmPiczgAABEnwhxLZYtN9L5MC2x99wQ1UbXIlM2VZR2frduvNBoc+Hxy5DtY+Dn9C/onpuZy5BN6zvdkPMs5kzOYncajj8zZSoG5Z3/TAuFv1OUBh2d6L5hT4RLXIaqiJh9P6xvWN/IKYfN6JxzlKIXrKniuLcbSrO1JfIuu7uZKWHoMChLyYl/J6qCHwq57jhJtrdq+xUA5PSarFOr+e1UcuXyLqGvaxJKMHQJ+NFbk81evEU3sPG5bq9l42Vg+t4rMU6vZ7ctDjvuZ++RN4l8gglGPpEtNip0oojPZJ/KyFm6WXrs6/jsRbr5HqO9z7bq7h8ibxLZBRKMPSJaLFTpRVHeiT/cikyOt6lsFnHYzXWyfXc3YnCXMPpS+RdIp9QgqFPRIudKq040uP4uzvZsbq7Q5JtHY/VWLae/Xq9WB1BrQd9crFC33Dsd+QDD0K8eewPd3dr+EHAeNz2x+N2dqXRc964bP6YYT8cO5Zg6KMBiS2mr4hglKdqAvdHGDBAZWlUhEHgxY7ChAwPthA2ez37u+DDd4eAJ5nseRwKIoi08LGw9O5n6zn0d6sjBB5IUsPhbo9KyA7VaTsmgBgkuoH75xpFP26uLk/OuKOstna8Evq2WJhuiaWVFXG1BIbJbxaIkWS/gVTDP/E/NOJ/kniZ0Ag8GLaL9d1i9noCYVGwxfIOhi4hk5nHWAgviCjSgmNJYq6eg2k0eyQO5O9QuIvFGj/Wtke4B71ZDCh5YExQNvPqsv/93QYRAH5LbkGYx3hvimQEE/oGU+oev0thRVxRInma4R+R3GEq+GGnCQlBhvv9/PVch/I0XsddrKuXVCCIjCSw8O7H9RzMZ9mRpTa72GOoCyPRcV7DkqIMV5Ank7RlM/n3Fhc0H+E/FhQ7aFCRpJ4moLuj1kjpVnc0HqKKhIRM+Oz1jORpWm3AZOYx1kYIIiMJV0d0eHlaaQVCW+DHOsgKfCb9eL88Yl82+ZmwWf5ziVzZTP5Lgwe2NIFv5A9S2vpciTxVCjqSrIz4zH/snhEhgqr567nj4prC3RFDAyYzj5H3tgakNQWR/DsbhR5cz0zUDYBR5lW3vru7P+B3aN4flyiSp+lRXJrAN9ytyRrar0FKYWld0TzVBYlyse/7/YbayBbRmrSHiJBJPHs9j4E8V3eE90GxnRS9zFAQUd18LFdLx7Nc1DUoX0FWPgdQQI67e9W8Ieif7vScty6TfyDBReCzn0yTVVhal72naj6US9R+LLzeQ98kVT4ixIlnrufqTpoQtka6QbG9pJwLBZGXBJd0Up7ItyArI0/42HTUM0dhuvJEL3J5ztfKcyUbfFhaVxJPdQXSs2qGlWcPvEK4XUSEKPEV6rmTBuk1a6Die0dSpA+6kyc14LBuPpar5ZQ8O9RzdSoDvIHfigFe0LzM6TkfyPNAsMSlCX38NV2QPiQY40viqeKn0yZHeYIgV3fbvfluhIQo9RXqubr3BoXOtsWAyV5SLE8SREYSvpLg4noG9CChqd/uHlDJvnLcha8NtB2rxy8smwOiF3m4RK5sJn87lFgcSdsPfXaUtdhi0eQgxxfEUR2XIG8L1yg+7JjrNXVPGJ6YzmIJUepr1HNrVGqgP24s9gZMptrZ/ikEwXWLJOErCa7ekg7ZAB8S1FttIM3pdDsTc0QfVH+4J71iazkREL3IwyUCc0Ygmp6Ul86OxkPfjgb9HZYlrIgrCVMdNthUD9hOwTa0WXRYi60Z44BLENqbocJV6rm9JxBZjAcqOJZSMpl5jLWRgggiwYjcSAJT21+/vr+7X0MwjN2xsdoHkBmP+6G3SwG6zXbYHgeIicm2y/0WmDAcIQiMgkxqpueWSwTWrTsoU0dlolyOuz1kOlBBF4vIt94OR/wCRBWxpUKqS2OioOHBuNsArQ7mIU35jYkIIx8toY5SgOivU8/usBsWqy2y3v4CJlseozylIBZBJJYEUyg8EbZHsW6hg3UCI64VoB+9oP5rWlmB0LyvOshvdHmmvlNyGwyQmSSyVSJZ8btWPcd9f5RFgOGCZLJlfiyIMNJCiEgUOXXyZzh98yJDrDZ0g3WbSRAzkblBBsVFGrGPyO4ZR3ha/0yCYLPh01bmMXI/wJclXNDyGLlW5zGLIGDa7c4qCtUZP9eI+92C1OKbLP9MghgH/N1kDecvVNfTuGt+wjNQfFWCmIFfjUTjQONA40DjQOPAdTjw63+5Dt1HodoKH7N5/OQTNvLFr27f3wofy2i/3G5xeulZ/l5d4cdt39FIU/33sT8scUJme788fKXGoMCPD9tiD4ZM8omv9ubjgy/8w9VyyRP+2E9xpVCqj1/5wpeY95sgk3F3B0vd4S/729DUG6yW32SjmBe7rEQpk4nU13ldXfjrZA9UL+BKXeFRLC6TcbOG2XyzB9osjov/C5C125vjGORfwSyenz4UicBpMlGTXTmQllqawpid0FfOLyaPc5tFrpRKJb9wMWHh38pMNn4mNZTBOb6tXLAmCMyaiaD7PJyPwhWbSTenOOEjG87MWn7PnMnzkKIo5aNwRc9ElKI5GwcaBxoHGgcaBxoHGgcaBxoHGgcaBxoHGgcaBxoHGgcaBxoHGgcaBxoHGgcaBxoHGgcaBxoHGgcaB26aA3s4xBN+Bzw1pP2eNwe643rZ72ndnnA+7zq93tKPPS7+E7+hf7bLqkUtXqtz2Jizv2T9O7smVIY193PgwNhvgr7JZW5dlDnxrJ7DMnfaB3TRZ1WTVljgQPEGpj635Lux7kY50GVWutviHtO7JW60Iq1YxIGp+9HwBOj2ezYc6Ke+kCtzOv6zqdDrLuhQRltkTkPc59NERryQZurXEHeKQzfzfhJtsaRjQ9ybEVi5IKu6o8PnP5G6XKz29kwOVApqnP7InlmAlmxWDuwqvp6Y4Vo1B85alEZsBg7UwS2c/jvv3u4ZSt5IKBzoam0/g789RCHTgm6EA8fqbtc+oDcismIxzJWYxSj2pb3GoyZqi/NkHKDLVapyX8sDcqpStEiPz4F6ef703UWlM5eG0FozgvgtOYnkhYEXFeulJa6X5/Lf3mVPeKvgSt+6dwWXLo7ibtKapLT+9/+Zmlcr0WjyLHFntnf1w8rN9u1nFxzl1uQ5m8xKhKqHld1hfL/8l4M72rFEVHvX5KlxZf6w2mEl3OPXf9eXVxqVSncNea4u+aCXCvuM39XebQ4D1dVyAzcuX4C5c7PpGm1k7jI+Nj26P7MiU7Tz7j6DadDxfMytyOakKE2eKbtWdSMWuPEL7qpc0+R3cXVnmsP1Qpo8Fd4eahbv2UUp6xUgLsj1RjC3yVORZ9VSErsoZb/raOHJjWBuk6ciz8V+esrMLQFcjlayJ2PuNXjf9FtNnotDurEsjDe6vUqwOoUQ93TMvYY8w1I2n+XAuJxYS9I7gY/LhUFcWPJ3mp7b5Pl47W1f1nEH8Rrsg26B50mY2+T5ePJc7EpmvL3svri80yLuaZjb5PmI8gQzXm46azyEK/t2YCJyi6tPwFwz/zlvndqtFVl+rtbmnqs4wn7pvp3mVQfg6xB3YudoTGxuf+vzBY5qXXTchZ0Tk2OI6M1PaVto8izIE6w+fbi2etwqR2Qs0PLnEfdkPbdUglPfNXmWObY9LN05UkO/2fTqOAa/ngJxnxBzmzzL8oS3eI4Urs/ic6WUBLTjRSBunZ7b9CGFlTcRBDaFEHGrMLf1pZsQnlYIWnMUIG4F5jZ5aqy8iTC0KQQ6Lnqn9NwmT+TSbf7AphAj7iTmNnnepiyxVGhTiHRcDCjac68hzzZfhmyf4WesDIGOi1SnMHeGnAMS12gjQQavxUOriQKrgqn5CfbcOVjV5DkHF5GGschHOi6+KGIuRpjz1+Q5FzftKRoJ4j4u5jZ5ziVPsimkOi6Sf0TMbfKcS558PIaCuBnMvQbvm347mzyNTSGxKhj6mp57DXnOVptGaEE2BR1xVcxt8rztRmNsCopVwRQ70XObPG9bnu7AMEXHxZLHmNvkeePyNDaFHOImmNvmP29cntamkEXcjJ47Z61an5+Tm+5kzgzippg7Z+5Iq8lzTo5am0IecRPMnTP3Js+5uck2hQLiXhlzW/+cliksCMOfvWawGJ9tChmrgknLem6dPrTaHjD33bbqpIv69fErWv5PV2HSZRYd5mJOJLwwsMihJ3652u54wea+36wnm7+1KZQQ12HuJLHFuIfcj7QEeOjXm75m33gtw4apK0lqCT2neP0yWFA9bncTB4KxTaGIuBZzJ+V5XAZRRmhRuT01pzP1FcpTu3guf02dYanfDVHkPWJuIKxUIKv1IYHY3J6aNPVkyOuTZ69ew5K7RtIykG0KZcQlzH0odrb9UkXX41wXyr42eeYvbtWuefXdwe0cDHdA+AjsOr79jJ3pczykndPEypcL39fPl11DnqO6GySt3ROEbAv9AK5hTpDQFdHZFIo6LkZnPdcl9Y5O75wmQi93E/s05JrA8Cj23N5rtJF5yii3iykU1UlrE8/ZFKYQ1+m5KX1/2kb6DkLkbv8oQpNnxBDrLSozEKfwXpy3WhC7ySeZQzPB/rQNW5zokX/f5BmxyjJ0anC2yt/Q620KRbGbjFTMnTiMAzq2Oy0nLn2TZ8wR9E+gLUY55iXubAo1hJS1YpOH5RQQt8kThRP/CmjqouYvd/A2hbJVwfI+wdzJw6ygDDkkb/qtE5B35JjlY4CrgLjeplBEXO5LEeZOoi0Wo+qK0qC8sed2ddG4pJf6q45jLCGutykUEZflGa3PzX4bg3oN00cMBvETz+uRpxhBJlwQAYX7Ir1NIY+M8MbbhwTm1l6fRjtORXFOdb4eeQp9psikvIobtIjsx1jIU9gWjtHpRrki1JYyl/71yLP2PoD89JWwKRQQN5j/dHpu7fVpe1XBPnX+Myft88K76qv8zqN/VqpV7ZepcLGHsCmUEDcon8Xc2takw73s8wH1R/HcZJ+vBTzYIphlkrQpFHVcSYH03EIjkXHBrcJ9k2fEpcWi9rqO4oXLwdetwjxBpUDMDXp2UjYZoIpODZSpruq+yf4pjradqHzepGDPU+D0VQNajHzcvPNKL6fOPFXRqYEZAvMHP3N5vn9Pa6jUf//8rQz+diN91r0JopjA7//2Sy2bD78NzxakdE0fSthX3z8/+VHVMYmitClkdFylL62+/tunSYEyAQ9ffLM55udhM6lc8E32JVe6GR2Fueool/Wbz/PGHGlT0HXcVJ775Ref1OPtx+Vvjsuqu2KicpP31cgzP6yM2bIcl8fsQoLApqDquIk8+/XD/R/zXT7K/tB1sFCh24VLEKNIee+rkWf1iAEGqsNmtckIILApqIgbyRModV/u9GGlJhYYqA40ZtkezsHdVyPPwrAyZCsOVEFz7TOYG408Uh03lOceFixtvu/0YWWYMfmo2W3NIHTlcLfNl6WsqrW44UAV560yKytDm4KKuCJvXGLWf4Un0avLNEVM6zTN5YiX4uHP4m7YRsyrx/t/m33+WGmFJMsc3nuVwdzApqAiruM0Ueg2O5BlLU+seWjHAl0sEHfLa3pdfldy1Jb9StlnyMr1BZkoGGxHJISjKubGdFLEZeqItdCB/0QGxLwVkaPj031nd4D6/Fsd77+p7N6cZNbnbcpzsa7iid3JYlYKqJgr1ykg33IzZ2Y5b98bCM2LXfLeLUoZg5sq+8/O1Xcl8XPdNyrPVTh21Gvn2G5uGtQwN7Qp5BDXpuw2drt+1VISsShllM0Ev5/n6bt6LQEIBvhVrnu/UXkujtNTZsB+/lnJKpgbtwvXBiip0V0M1kLn7XjE6q6i5AzSZ7AkZiX22Rj91uu7aVIOqeI9XWkBwLFe7vYVpqib3e8wjbhi3yB3qBRzWULMwxBxSZ68dQJE7bYxhGJ3iYUjtAqhXSH+TdoZpuW5lVdaoGTFlzrO7sb9k4gbsJw7VIK5kU0hQlyQp0sB3d3bMUbRWFRGxffNGrtCHLWMu1PyhO2KUSuBnXXKDECc6236JxCXJWgL76QbY25kUwjtuP3AWItouzB73YmiAHONPQHaUgRrV4gjl3B3Qp4p2ABxbUNsnOeN+tcZMx4Vd7gPGyojLgxiQntubFMIdNz+jTP9Q4NYyXmdPrdbELNfbVL929kVYnZmcbcoz9x2xWfcRfPgolTK91eHoIaxkU1BIu7qy6+Y+dgf0Zbgf3k7f+YiS2tX0OY/ddw152H4HKUrapXyVXF/+k2uB+PS58ClWypd1yEuQKq058Y2BY+4HmsJbeNPrbbbHkuW3XFv7ApGZ+Yq8LOEuxxHPI8ON0QgO8edUn37stjnmcDTPdUuqgYG+w+C1h3bFBhxWa/F2mFjSL60ej/M91tjV9DlCXlkcTdl75QyKMe7Yeobl+cCwCXS8fa56TGPuKE9N7YpGMQNUJm0n3ioCoyCrhjl3ilHZDiOkl0hK0+IpuOuS+8cU4O1/M6dW5fnYjziqT92JN0dD8tdqAg5HngcpSCBuamg+l5iLaHtIhmpEhmQgDtHCs6VgkG9yDBxol2hJE9oIW5eLUnsAyZUe4iY3St58/LEWuI5UvjbHI5Rd/E8AJfXcSmR03MVSb01cyPWikafXsUiYKjjOB5zX66P2abE5QC7gqYP8Wt6OtzN6UP53ufp5BY21utDK2qZ/iCyBdZxTRNbW3JSZicGzmvvkIgrMDdWdGC48c70WdOXCG29LcEz7QyXbleICRnczfWlnKwklRqZy/ipO5d7GvPpQoSOi4VgzI00HcRaE9PIk2wuwpZwUfkzdoWYJuLuL7qamsXSgEZdrCBJ6HkO8gwR19kWQpuC0WtJRSR5kmgDW0JY8RN9WbtCTKf73X1wlB2/t9Pk7M09/WxELkY5/DnIE5ZnhZWwWqywKbBeSzsgUJ7GslfWc0KiEz6xXqEcc+g1fbe2ZdWuismV4VnIMz3VgDDX2xS8XovdEuVJaJt8YnNcqAmX6xVK8ZGjqb6raG8qEX23Yv182VXkOakwqlUpBMaIazGXbQrShmAG5fZDWrlgqZAzv+qHcL0Ch2efTt81MfLjsZCCW+4SBF9FSkEORY+0gBcjVr+MEdfoucamwFhriBHiGrR11whUZ5OPCH0+WK+Qj+nfSNytW7wEabmNejLgenHyTBGX9Fwcn3isNSzArmnmE2sxLmBdxoMYLtcrZKJFwQ53aw9vgFppmPLy5JkiLkoSTNgSaw03N4NBW78uIeLyOV6UJxyHVTJ86GQN7tYLRI2pBur5XSN0frzFLQhpSVcfvlXMvt37DxR1JluCyZbkafdBpAUphwDu/vWhHMW/HbSYL1CeGuIu9j9+ofSYf/8zsWcuWwIRszbECruCwvvhzX984yVWdg1vwzVMFDtnQ0xJKbmnkU4NmV2/xQIoiNuvf/2Fs+e6Qvaff4ngWDvic+mqHNN2hZijq365W7+Bj3rdb+i76HD9unQ2Vpz7SYkfN3KMuKTX7j7GiAvT5Z+hnjSjLUHWc9KuEHB03K4327HfBYGSXOImJW5/1s42pFWfUZLzowdYNcfma/RasCmwPdeGb7oeFaJZbQmyqlN2BcHRYbfBmdbt2u+ikJRUtx2ojseNgrtqiiBQ5B6E36InQFzWa2G8FqxbAFGC7gI6rqb3z1GrKbsCcxRxliav6JtbWmkSlMqrfWfhLuce0LxVj0dcb0NAm4L3kd0WdJdu+a8Vy85PqKfYmTBhVyDdxeAs0e/IEl/bvMKBKuNuvT5UH/OEyl+razgdV9oQaM7TYa6xJCwW331+Qnkroprxiok4aVewOEuxO7NponbwhHuZ5c/g7hP3umuMP6mSFnEZaynMWIEs5rpP7LL+/AvJvqxbyrNsV3A4a0rMDczjaDYPfBGvnYcgwN0374qJrv3yavIkq4JAV6yIVXwo1NptQc3b1Z4dVsmLQJ55u4LAWSLsP7Z12k04p+vK9svX55zk4JJf6riePAFxJdZSQfnTBJjLnQH3OLiuemltTCY4pPU/3a4gcdbENSt30D21WNPGD7MxgTgKOVffZQoXPSvlCXcM4sIkdTo/l/94/32s6Lg2vb//T0o2rMiWkF/OSrHgFjrKXedgnH/YP2Epnt+Ob6MyzkqNRC6Rnl7el1/gR9/PKn1X5h7XQfg7qvtuq1jXRCx21sjT3BKJe1r9zZGcPv9cbd6kHyJep9B9YmwL/UADhRLi0v7LPebub47M56q9Ce0KAmeF7tIHQp9afmtWEGt5uTDWd11A4hC5J+9sAC1Q3WLd57sr8+hX32IueLNrTVNBrE1xlNcpANqSntt/amYb05i2RjAxI29xhQo6oLYxKh7CrhDgrOco2BHkbxpxJxAFiU3hrs9dZi3cq3WwQBXvyoxUahG50rla72LQBKPA9CiH9NrAqmAyNG2BxId6bv/GktL5M+7StpPbU1OoEKs6jLMc1XE0+cZOIW62/TFp8yzirss9TON829TerfHDxa9x6HtFclvpHEXWa71VgV/ROgWr20Ks/q1tLSri6rcYKnvbmHruiXYFgbMcjTlq7AgcSk+vHQXB1qOWVosIM79Z+y7nrqfL8Hi/vKCL5jZ42TVBekEg1Ou1aTtGm4KDzP7+D0wkjQlXGGaAvbhhjwkGz9Xb35N9Nghki7i1IwTvxk2f4JKLIK6icGF5Rw53i/IMDKOS9njIcUXGUt1Kh3fxoPk4d+wQNoQUccGmIET3xc9uO0qMuF3hYwFdNM/tWL+FAUi//L02+2oKntna39OBSHHdwJ/drkhxVSkVcVfJYpG9+hQiFz93oR4QkJ5QCoRUwmTBrFiCuCBhr/YOO0bmRGNMW0KQy7bQnMJhjcXZ7D4I/rgG5NGT+VDrnyCXWpUnvM3jrkvqHTnemhily90K8pxS2h1q+nKAy2OtCU6K1v/s59BxXYKz54YxQ1+QBXkOWZ0s6J9en010Hkuz8KVU9rnmP0GWXE6e0K9rdrYRFdHiLdXwIU5eCl/AmsM4wPmnVDy7rt3FNw6BtSYg6Wdf3bskZl2C+1RIxE36tUtkHflG6uUZ6rOpXQFJSTtCnAdUMRjHjzACdt+HJLIJyMsT3lfirt5TRIbuZDQRZpxZeU6gLaZOu5BHT59RJBlgkcNDuy6BUwmtMWkFnh67so3UyjPVZ0O7gqET2hGYtn/CcHtpdr+SXcMV3ceIXEV5Qly50jdKyt6Ur/yGn/nLT7PyrNkzJzsUZhVjrck+LN6mY5sCmuftXk2LuT6md3EV0meukdL8p8dZkVDYFSi020Z2BBFXOI21sep0MEDVSZEz7uZ2ikYdQBTEO7PXTee+QlW74USHwqwSrDX5B30NBcUKN1jnGRst5nIDqakSNIfMcAb1WXVJUqz6DN8V1GTPvPldtNI305MDdmWzzl83rSYZ6yoqqTJqpvSEdOhLz+cpwFCU5WnXLXADyUoqIB4fEWZepjjrE0XrFT5ja4aP8Wiu7eHLH9QxV1VPglVOauJc8fW9U0lssSVHx1qTwqOn+dKjTQG+JNBVnTytnmti1l6f5gc+rmQqzrq34T6I7u07/+bxXR9/UG+mqBTUabsVvc5SrqfLPIO1JrWDECtYs04BO6GQJ3x9QXckxI1XcuTKEJcyh7MivdgHMW4+q15qKyjM5gS8jXa2IWnRRYo51a6KMUTMrEeRIL20rSSPtYaERVweV9E6BSpQcHYFUiHErb0+zbQLW0qHs2I9mFIBZ1eAj2lOI1GSVQdN60NMyuQe67uVyJi7CVDXh2oBDw4+wdKVsNaU3nRMN67CdQraHgfQczFmbWsS6+oFzso+z7wTT7YrFOwIIvbJzoyWU6DD+q6JUo2jyvIloKCPV7bVRnxkfRFrTSkJcS3aQgisUxCyMFHoP2DuZuiCuWXxNnFauA9xdkKedr1C0Y6QZFQfcLo8gbbA3dq2vNCvbNDlWQt4OPaYwlrDCkBcRlsM2Jl1Cead/I8n2TzooCGjWTeKzuEsv5+S5wLtClN2BCZ28vMseUIuFnf1Zq6VIlz+yzF0eeqhnEY+17/kpiFkLHD3gTG0+yHbDvu3HyaH5Ey7HwTO+kB25Z67Y5UdIZe8GH6uPK19N2soSDNVhaQGZlA4JblYvP/pAc5Wr/g9/PiJjPXtN+T7Skn9n3/7o5aTFnb49k1qT53sn4vx559pxFR/doWWuR5WL08l9+7dt3/XySqhqujUwBPk+V/v/0LLlSb/ffb+Sxnn/s/ke/MrGUjuTz/58aNSejXo4a+b/DyLmoICuw8GAup5n6d1/ps0dzD3v/m8mqAuOjV59ZacxfrTXekcaU8d9pKJ0d62NzaFtC8Ny6/fnIC3OGVReyAJFwbWI5h9EClHOcpjPKPcVz3OVNTj7XiCPKuVZhxabN0wpMAFEKazKkA0ODWRpJvIs9/8/z4YVhZo8j3f+8PymDPlKslpPQLZFSKOKnGvGSRzB6VubdYxZvWKuCjVA1VIWB2X1LHSyhBbCtJtvR0XbAlm70Mkz3G9+/VmrNfxuPK4RKdWKbZGebQrSI7G7Lq+3+cOOOuO+eXJisn86/sckGJGTVE1A9VxEnNNF3aIS+sSUAChPAdYCIrzdM6KOJG9HKhW4y7bEcCu4Dk6kdFVXtvcDc66HPRhpXvtHYrx2r+MXbWthAeqE5hrBcmISx0QbAqgo8tZAhzR0OxCbdPj7TC29BZ3wzYS18zbEY47RcOMo5/sr28jmLvHWc5IH1byW//MgFjmoxpxypOJXK4fFzHXWRIs4prJyciaDlg7wrQZCrgW7pNWR7hblKe0I2jrFaL6ne6tlyfUU+Csy8mx1IWojoySkZGnRDKVnAkU0UqY6xUm6qh226Bbp0C0EGvB3GRU2zosUaciuv7+d37BWVz20I4Qr1eIY5/jr5ZnhLMur0ptQkOL9gAAE+dJREFUPRMtI8/wljGXV+wIFqVkMdd9NgFfcAs0d37ZvYz1iOdy6xgtZ9NFyfpfsvou2+Jt7Hi9giBytrNOninOugzrRixet3QJyZGTJ68UCGNHPma/Dc5grkNbjIblMENPhBumR1gLX1NWhPJLSTgFksqUHfA2o+8m+xqi9QqC+NnOGnmqOOtyzDRT9x4drIkEgejJ8ATtrUncOCCRuY65Hm2RANzY6igvRzP/abDWoS3EyslKFCG7xs3Mfyr6brKvodtOnq8Acx9wpQXuPt2six9mLtnk/KfD2dzsa1ZWnAU8s9LJj9p4bZagEjmVGArmRlmPy/du7L/tiUVsqZfdfbqRTseI7AzpvgboS2K9QlQ78kJPcldawJ7m+lGuRgzCJM5me3IOSz3N6Rg+Lrsc+HFA/IwEZV4nmBugLcb51U+O0Ph3xEbekRhkmO19nDi7/JYj4FPirvKxRI669QoynXXD9rxIteqUDYxKwkzQEOizWXnmex+XK4S8TG5xsOwu8TvwJ2hr4sSYm2S9fufwdtF/NzDWSrRFShOIW/WFRToOd9mOgIH2RxyNdCR+B091u+LZG/YcznIOeXlOIe40NHEewXN9DLyhp1PQ1sQIMDfpxKu1KO3q/o2Td9x8+nQjsS/BWCybj0cuwl1vR/BvDUf1fRCL3HbFszbsSZzl/PPyhJYU4QKnoecxq/QE0RJPrkYYMbubDt4JzE3QFs9e9Og/3v8PG4gCtKWiFLJwW14oYvRPWQ82Ht/S8DaKaTUS1a6gdk6TvthFNX1ImXQHSjl9CDMp7HAtb1fM60OGrN5FyzQXHnOTdka2BO60w/IfrqkFQ1nMG9uFR2YTYv5DD+FWIIPZramh27XDXY4mnspwdy9vvBRRyTke9ILhy6TXJTgbU1P92b50LK8HcfxUqS50cDlmsZapWMxlwXEw9GtsQBZxUa9lm0KMtiYFa74+PbiK3QPeK/I038hI3/VEU1Vp6vOctFNHLJSnhrMuatmhAsTkdsUJeWrc69aFrehcRsLcFG2tLQER1+i11qaQoq0hBF006oqryf3mqTydHUHqu1xSfCZ2hakjwpSaWXpSnjrOyoxLbuii8Vd0Yi8xUJuUJ+gF4l6/EcdgVcsHEHPTVsy2BBh42g+aMRYpaGurCncLOgHhiS2KmhoxxUXn8MCOoONuZFfQd8YwPXymyGPfOnmeh7Myj8Ug7srEg4KWceMOYpNnWp4QDUbSywOu3xK8TUnFIVtlewhvNBrvv6a2txpJwjraWoK4i5Zyx3tI40wUfyzPpFk53BXzZYFdYWSLpEKdg3KfHCPPGpwVuTPR9Em7ToHzcPFp1QlhVfLEbDpcrBVhX5q9DOngZELpBzdvuhjXv/tAr+AuI5gfyqGtT73C3J1dyYdXuNKPo7MzuL4EZKRdYQptMdfM8JsKVIezMndKlvk3Yt1j5M3EvWbwpvN6rs3HfhAQaw1gQV8CDSmPtjOULwPQiLvBfiRvV5g8aYBKlUPcapytlecMPJiDBNU3sC3wHgfSWo2OC/JcLYtoe2lRNDuCpbn/5l6uI3N2BZ7lmcgagCX51eAsJ3pe8rQaoLAt2Hsc2F5LVgX81r358iQYZ3bUPeV6hCTF8BCsI7N2BXWaPEmrjYvqcJZJPS95sm4rMJdsCazXGhUR5fl93WoEZsNJz3A9QpwUOSr1XWNXYB08jh37o1Ux1TjLdJ6VPMXXxWEu2hKEhQARF9aDHbPHunHFT3xiG7E//03kkOBpNUyv727Q2hGtawpSSI/sxx5n66VUpd/KDGvc1fptDTEfJxhvM+YuR8ZaE5EQF3Rbv07BE7jA5eXp7AhT1NjOQHaFarhw31mJs/XynCrUWe+vJE9GW1Mmg7lbZ0PgkmInRt22YrjHSSqeTp6BHWEqocFdsCtU72W266AinH2R8hRoa/iImLv8KpQy2XFJt639Yk3JxLxneSZ2hKnkiLu/WX7M29ojAiA6j7P87iXKM0BbU9Fu89f36YTm8Alhll3AySy58GnlqdkRpigD7n7zxcNULH4/vDGXZLGfni9RnnE/xIp++m9fK8OSn/5MTOAVnOS59J+1I2XsCJK6MgO5evff1Z+g4YPXvBxZbf7TvQwcSu7B+7M85fnPs0iqtur+k++dnuupHv/rrTHjamNzH+0cV8GO4MjFfWncgrn/01Pw1pE6wxHnfgaJR0mioC3ote/2ct2CKchq8/Aro03WjhGqK1C0IzCVkKN2VWwYyFG1ZzQA1aKUwuozKlG5/rsUbcGGQJ9IYVugYqwHui8S3OHeh8vLWLYjMH3BUa+lymElR9SfFzZCkbtO/zZCE92WbAj2CxlgLui2OL9CiMvrFOapw4QdgTNhjhLOuq+7G1ZytNzzwo8E554jfxvhCdoaGwIPMdm2AIXFWTJYH29Wh81oUxhWtXYEo5HEuw+qJlmx/OqR5y9NH4rR1thr/QjTYy7PkpkOzQK/vFXCHc71s4UeZ13GPEnrAjIO/ZTBJ+511cp5plJxcIy21l7L6xIwusVcN0tmENdLPCZ5qv/hy1pxhjjr8qnEUd7L7NKR42XJM0JbtteGTZ4wV6xJIMSdzaYwvn0IOZzzxTjr4tUtkFrpdt6XJc8Qbd3cWLRQDTGX0Ra5SJ16LpvC+jtllO9kxQ4FZ/lVcSmJi7TIXH/xTOQJ99DDb2pJUoi2bm4s3eu/ff+OOGPOTyDEpfMUPLsCF5xdBL9jDY7uzJ61IHnsYZzNzViF1YhTG39uUUq9PEeqFDU+w10i7APhqFH40aIp2IgHzMf3U4E1309zxwGuSnKXHZg6xf8DtGWshUjpYe6rrz8cMbW1tRLiZoZzK9h/uaM7E4+4fHFiUViFHcHjbJb3ucV7vsIV11/4yBkXctQYJ2m5m4EVH0jrwMwSPFqMR615KnCCPVCS/fIgmQhLYFO7ui2wRFuHtTiNklRoPRg9l+dCsEeoNoUO9l+KbgnXYBZHqpN2hABns/IUH/ek6CYgg7aZ2LcTrG14yG13kDDlsBaqkn4ZzSwZiJ/lSYirSEqSsUwpbXeYsCMwzjJ7s/I0x+ZwNOWZQ1sl6k0F6czTtyMJtBVYC9VJhpa2+YOey/Ikq0JiU9A3JGlNzDCtbEfwOMsszstzYgnpHGjLhXjEZ55zWhf1aCuwFkqbjixZtx13X3/K1cHOHQle6Zwmtt7KQC8VyMx07TPAWX5XkOdqWZhm2RcyYto3+OyWpLOoJYMuGoV7tI3kIG0JlMZZEhaLP35gESDiBpLXO6fJFBqaM7e6YvB6BNfn/RucB0sTLHL6LSaEKykzuoWaucur0EZcnKdxGLtNNu9o06RD2xBr/R4HRyhQNrw9F3TcQHHaFPeqpB8wtx4hlmeKs64oRYe6YU/bcBdQuV15TuziiMTNaBtiLVQ1siXE5yR4ey50cKE5+e4esMt5EgXTrUcI5KnirCNSdmh7avOfIEvrZuU5uWfOTIzYajD7I6yFAXA8whVoa9LyHBo0EG9TKG33oWSxSuLXI3h5xvqsLWv9Y4AdbRKnh77wCTJkb1WeFXvmWIZQEYu2MdbCm9iWEKCtYQFjLjQQZ1Pg7m5iaP9DxBV2BJbnuTgbZIY7Tnv6xuO5UjvtKxzET/fbh6+fzDeBtlgugbiG/QnWKrYE1m1Nxcz5YIy5fc82BdFUshyQiCvtCGRyqcLZuhVZsPsVzwdz50plC0Qv6uc/y3Rmfhu2/gxxh7iG/QnWQjLxRSQiEdpyXzKYCw3E2BSccpXJmIIFgkR2hFqcvVVsLNX6vHeCVyUC9mAjYr+CtZA0GlLGaMvytGvFho2xKUyjLZbK2R9CO0I9zr4eeVYuXbPKDrJfwVpgeTCiBH+Its4eD2+sPZfufUh0KHiv/axdWNoRqnCWab0eedauoaE5XURbDWuBbZEtIUJbKU+zbmFc/gOI1V6fZs70ZTsCtImM3YDlFz9fjzz1ufeYHyAPGPQD2upYm9gSYrQFybF5CEmjnjt8gE6XOXs5yZ7k7uwIjLP15yzU6UNJtsWAm9SHagGPTnrfdDrWQrUjW0KMtjFjEHP7z7fVt0tQMY0dQeCs+ybH5B/Ff5N9Pv7sZTkBi49h5jynvkTNIkHblOx286ef39decQBwDn0Z8DnE2SbPhK+1gAc98Dcf+PzahEpkS0jRNk0BmPuXn/5SvakGltfvklsSmjwTvsY2uiSCC1i/f5/lfmBeT3VbRyNwjLt//bZmQRcl6h9+S7d+BRSaPAN2oKdenl/8+A7XKqm/z7+TwT98Ln3Wrd0X+b93f0wKlAn4w48/pBa4enmW5ssyOU4G3+T3s16en/8/WsCk/nv7qQj++KX08Qvtvsjfvf10kms2wsNntTHVeDfJe7WkFwbWy7OgsoZKlR4x7UtyEcpkLdLkk0lkhFcjz1pzQvHquMCWkNFtE4GgIbfWnFA/UJVCFO5XI89Kc58yu+m5FexxyOm2kTyN0S8a5niSicsa/JLwyoBXI8/qPa0hpgZsDGwJOtqG9j5jIEIatWKqH6gGJXOeVyPPhbLcynFBOvID1aCTZdAW+rec/eeFCm5VrsxJcx/VoVLU57WENuzV6LfJtGWOKXk7r1yXkEPbgCpPakNgLdwf1BV49fIM8p/Jc5t9Pvj45WuaB7zAlpBDW0mYF51gWC3c67jc5Cn5at11K4blko+QiFyXkEVbkcRhLYVVLHaBeJlFKU2egq/srFrxUViUItYlVKCtwFoqQNXyCLfahctsn02eEUPIm2n8Mmq8ZFK8k3pvCW3N/KfEWkNkcrEogHIOQtr8pxCEd+YmwXyMPNrKdQlFtKW+FGKtoX9QVVefdxZtZZQp923qLlOlPvP9JOIW0FaoU2W0BXnGWGuKO3VBkbgE7cz6QbJXJc+cusHsKwlK2BJKaIv2hBRrTQYT93tm0ZaLV/N8XfJc0OnbOb6sCnvShS2hiLYgz4csrBfufIOPp9/ekCtgRfgrk+d4OEjzTcCg4o2N3pZQ6sRAb/wmb4jKb9jDxaHHoDSBp+lDATukJ3f/WUnSqHk6GmW0zWGtTZ7ZsIdbM+WyQJeZdbTxSswR79fvJyx2TgBRp5uW0VbTa33W4NI27GHnjLcSB4mqrb9hqrl8t47haRctd07gi7MlFNFW12sjtqZddKJzQvrWPyMmht5VcLUd3ndX3Dgt9ziU0HYCa7kMID5xYE3Xwx2D/Cr3bPLMcYbDgY1LWsAFog32t3KE4OnWJZTQ1mJtMF8WUPEeOFBqA6d+Vd+ZeII8qVL5E7rUY7smAm8db5mvtIJLnZ/iGPbpbAkFtHVYW8t7yr2kBEWFqPT6SqkndJ0VWJn1s4nmbAl5tPVYWyvPZ1P7F1dQZ0vIo63Qa5s8b70BsC0hi7YOa7EmTZ43Lk9nS8ihrcfaJs8blyUJyNoScmgrsBaj1+i3p9a69flTOVaIb20J4YkGLn6AtS50ZkeT53wM5XUJOtqGWDtfriGlJs+QH5f4rC1BR9sIay/Jp5S2ybPEnZPeWVuCeljbo2AtlrbJ8ySZlSJbW4KGtjrWBudhlCif8K5+/vMEoq8yqrUlaGibwdrWl265oRhbgoK2Waxt8rxheVpbQoq2OtZiTZo8b1ieZl1CirYZrG3yvGFZYtHIlpCgbRZrMUnTh5ALt/kztoQYbfNYe61aNAyfh7NkS4jRtoC18+SaUmnyTHlyRgjZEiK0LWLtGXlUJWnyrGLTVCSyJYRo+/hYi4Vs8pwSFbzvjrh2qrAYjGwJIdpWYG2bL6vg/dxR4EB8uOUP1k75yw7SLNCWEKBtFda2vpRy8sohA19YQfmAbNUVsGRLkGhbh7VNnleWXkxeW46ubR9BW4JE2wqsxayaPGOGX9ev7xVRrooDW4JA2yqsbfK8ruwU6lpPpGjxC7QleLStw9omT4Xj1wxSuqHLrlsG+0jAluDRthJrkVbTbx1Hr+7w92BoWY0HsaUWbAkObauxVqM6R1j7JutctJcf6S9x167fzQK2BEbbeqzNEb40vMlT5eDEgRRwyp479RhsCYy2J2CtmusMgU2eGhNl99PeQ5hD3N3eou2TYy2WtMlTk5cTlvbShI32hmmwJRi0PR1r2/xnnr2zvvFgWiA7GMTttwZtz8Da1pcK7J3zlVB2CmTNCpPln3BlwllY2+RZ4O6MrypPFF4dIM9tj2h7OtZicZs8ZxRagVTtBQ940hAcrQBCLR4JlM2pyTPLmllfbLIHg4XZwP3lw++X41lYi5SaPhTy80q+2gO/8aT39ffZMxWvVLoJsq3PJwzibX/JizgAhix/78/E2pjWXP4mz4STAKOVv80fvniXP7Wxksi80Zo8E346S17yJg744T++FHb5+O2T+Js8E7bXy/P+vy865WlFJ3SRYX+LTjp94cLAJs8L5Am3XV/yG+mELlKmO3RS47gw8JLyvNC09f2Tp8leKCNeSLVO0IcqB6ovhDHPtBqV5j4w2uYvMHumVX+Rxa4WU/VA9UWy6flU6gR73/Op1Csuaa09vsHt82gk7lDicnFpvqwcpb29CQ7YpSQTZZm+ZWyCQHv9SBywS0nKuVUtSimTaG8fiQMTq2+xFBVLAB+psC2bSQ5UXPhWd4vuZE4twqNwIHf9rcu84s5VF7c5np4DEzf0Vt2J/PS1aCVgDozL0qz22NCWGfVcnrBfMGttTy8Wey61es3l7DNdVL/47zVz6pnUXe+irXM+E/EpxeyX8YIS7YgMJWELuk0OdIeNsM53x0O40/42C91KVeDASOdI4XKtHVzG6XdlF5K0VzfOgRUsv/tHWzl341LC4v0fx9K2eYyCogAAAAAASUVORK5CYII=;" parent="1" vertex="1">
          <mxGeometry x="162" y="500" width="173" height="131.15" as="geometry" />
        </mxCell>
        <mxCell id="hIOBq9RyqxrBLjO1l1mz-28" value="" style="verticalLabelPosition=bottom;verticalAlign=top;html=1;strokeWidth=2;shape=mxgraph.arrows2.arrow;dy=0.68;dx=20;notch=0;direction=south;" parent="1" vertex="1">
          <mxGeometry x="375.63" y="440" width="68.75" height="30" as="geometry" />
        </mxCell>
        <mxCell id="hIOBq9RyqxrBLjO1l1mz-29" value="&lt;h1&gt;1. Learning Rate Cycle&lt;br&gt;&lt;/h1&gt;&lt;p&gt;A larger learning rate helps the model learn faster, but a slower one helps&amp;nbsp; &lt;br&gt;&lt;/p&gt;" style="text;html=1;strokeColor=none;fillColor=none;spacing=5;spacingTop=-20;whiteSpace=wrap;overflow=hidden;rounded=0;" parent="1" vertex="1">
          <mxGeometry x="690" y="445" width="160" height="120" as="geometry" />
        </mxCell>
        <mxCell id="SVYg9zeV4l9jzo81nZFu-1" value="&lt;br&gt;&lt;div style=&quot;color: rgb(212, 212, 212); background-color: rgb(30, 30, 30); font-family: Consolas, &amp;quot;Courier New&amp;quot;, monospace; font-weight: normal; font-size: 14px; line-height: 19px;&quot;&gt;&lt;div&gt;&lt;/div&gt;&lt;/div&gt;Training Batch 3&lt;br&gt;" style="verticalLabelPosition=bottom;verticalAlign=top;html=1;shape=mxgraph.basic.rect;fillColor2=none;strokeWidth=1;size=20;indent=2.22;dashed=1;" parent="1" vertex="1">
          <mxGeometry x="150.01" y="740" width="520" height="180" as="geometry" />
        </mxCell>
        <mxCell id="SVYg9zeV4l9jzo81nZFu-2" value="&lt;div&gt;Optimization Cycle&lt;/div&gt;&lt;div&gt;Learning Rate = &lt;b&gt;0.8&lt;/b&gt;&lt;br&gt;&lt;/div&gt;" style="sketch=0;html=1;aspect=fixed;strokeColor=none;shadow=0;fillColor=#B3B3B3;verticalAlign=top;labelPosition=center;verticalLabelPosition=bottom;shape=mxgraph.gcp2.arrow_cycle" parent="1" vertex="1">
          <mxGeometry x="395.01" y="771.08" width="90" height="85.5" as="geometry" />
        </mxCell>
        <mxCell id="SVYg9zeV4l9jzo81nZFu-3" value="Weights" style="verticalLabelPosition=bottom;verticalAlign=top;html=1;shape=mxgraph.flowchart.parallel_mode;pointerEvents=1" parent="1" vertex="1">
          <mxGeometry x="535.01" y="793.83" width="95" height="40" as="geometry" />
        </mxCell>
        <mxCell id="SVYg9zeV4l9jzo81nZFu-4" value="Forward Pass" style="shape=image;imageAspect=0;aspect=fixed;verticalLabelPosition=bottom;verticalAlign=top;image=data:image/png,iVBORw0KGgoAAAANSUhEUgAAAc8AAAFfCAMAAAAfwLdaAAAABGdBTUEAALGPC/xhBQAAAAFzUkdCAK7OHOkAAAAJdnBBZwAABvoAAAneANJhYVIAAADVUExURf///wAAACIiIt3d3URERDIyMs3NzXZ2dru7u+/v75mZmWZmZomJiaurq1RUVBAQEHBwcFhYWBgYGGBgYCwsLBwcHK+vrzAwMKOjo5eXlzg4OBYWFiYmJmhoaCgoKD4+Pg4ODkhISDY2NkBAQAgICBQUFM/Pzx4eHnx8fIuLi7GxsTo6Ot/f30pKSlJSUkxMTIWFhb+/v0ZGRmRkZF5eXgICAiAgIAQEBAwMDAYGBiQkJHp6elBQUDQ0NAoKCjw8PBISEpubm4eHh4GBgWxsbKWlpUJCQj3cweEAACAASURBVHgB7X0JlyMprq7TSyz22JlV1dVVve/TfWbu7DN3mbnLHL937v//SVcSCAQIAtvhTGcmPiczgAABEnwhxLZYtN9L5MC2x99wQ1UbXIlM2VZR2frduvNBoc+Hxy5DtY+Dn9C/onpuZy5BN6zvdkPMs5kzOYncajj8zZSoG5Z3/TAuFv1OUBh2d6L5hT4RLXIaqiJh9P6xvWN/IKYfN6JxzlKIXrKniuLcbSrO1JfIuu7uZKWHoMChLyYl/J6qCHwq57jhJtrdq+xUA5PSarFOr+e1UcuXyLqGvaxJKMHQJ+NFbk81evEU3sPG5bq9l42Vg+t4rMU6vZ7ctDjvuZ++RN4l8gglGPpEtNip0oojPZJ/KyFm6WXrs6/jsRbr5HqO9z7bq7h8ibxLZBRKMPSJaLFTpRVHeiT/cikyOt6lsFnHYzXWyfXc3YnCXMPpS+RdIp9QgqFPRIudKq040uP4uzvZsbq7Q5JtHY/VWLae/Xq9WB1BrQd9crFC33Dsd+QDD0K8eewPd3dr+EHAeNz2x+N2dqXRc964bP6YYT8cO5Zg6KMBiS2mr4hglKdqAvdHGDBAZWlUhEHgxY7ChAwPthA2ez37u+DDd4eAJ5nseRwKIoi08LGw9O5n6zn0d6sjBB5IUsPhbo9KyA7VaTsmgBgkuoH75xpFP26uLk/OuKOstna8Evq2WJhuiaWVFXG1BIbJbxaIkWS/gVTDP/E/NOJ/kniZ0Ag8GLaL9d1i9noCYVGwxfIOhi4hk5nHWAgviCjSgmNJYq6eg2k0eyQO5O9QuIvFGj/Wtke4B71ZDCh5YExQNvPqsv/93QYRAH5LbkGYx3hvimQEE/oGU+oev0thRVxRInma4R+R3GEq+GGnCQlBhvv9/PVch/I0XsddrKuXVCCIjCSw8O7H9RzMZ9mRpTa72GOoCyPRcV7DkqIMV5Ank7RlM/n3Fhc0H+E/FhQ7aFCRpJ4moLuj1kjpVnc0HqKKhIRM+Oz1jORpWm3AZOYx1kYIIiMJV0d0eHlaaQVCW+DHOsgKfCb9eL88Yl82+ZmwWf5ziVzZTP5Lgwe2NIFv5A9S2vpciTxVCjqSrIz4zH/snhEhgqr567nj4prC3RFDAyYzj5H3tgakNQWR/DsbhR5cz0zUDYBR5lW3vru7P+B3aN4flyiSp+lRXJrAN9ytyRrar0FKYWld0TzVBYlyse/7/YbayBbRmrSHiJBJPHs9j4E8V3eE90GxnRS9zFAQUd18LFdLx7Nc1DUoX0FWPgdQQI67e9W8Ieif7vScty6TfyDBReCzn0yTVVhal72naj6US9R+LLzeQ98kVT4ixIlnrufqTpoQtka6QbG9pJwLBZGXBJd0Up7ItyArI0/42HTUM0dhuvJEL3J5ztfKcyUbfFhaVxJPdQXSs2qGlWcPvEK4XUSEKPEV6rmTBuk1a6Die0dSpA+6kyc14LBuPpar5ZQ8O9RzdSoDvIHfigFe0LzM6TkfyPNAsMSlCX38NV2QPiQY40viqeKn0yZHeYIgV3fbvfluhIQo9RXqubr3BoXOtsWAyV5SLE8SREYSvpLg4noG9CChqd/uHlDJvnLcha8NtB2rxy8smwOiF3m4RK5sJn87lFgcSdsPfXaUtdhi0eQgxxfEUR2XIG8L1yg+7JjrNXVPGJ6YzmIJUepr1HNrVGqgP24s9gZMptrZ/ikEwXWLJOErCa7ekg7ZAB8S1FttIM3pdDsTc0QfVH+4J71iazkREL3IwyUCc0Ygmp6Ul86OxkPfjgb9HZYlrIgrCVMdNthUD9hOwTa0WXRYi60Z44BLENqbocJV6rm9JxBZjAcqOJZSMpl5jLWRgggiwYjcSAJT21+/vr+7X0MwjN2xsdoHkBmP+6G3SwG6zXbYHgeIicm2y/0WmDAcIQiMgkxqpueWSwTWrTsoU0dlolyOuz1kOlBBF4vIt94OR/wCRBWxpUKqS2OioOHBuNsArQ7mIU35jYkIIx8toY5SgOivU8/usBsWqy2y3v4CJlseozylIBZBJJYEUyg8EbZHsW6hg3UCI64VoB+9oP5rWlmB0LyvOshvdHmmvlNyGwyQmSSyVSJZ8btWPcd9f5RFgOGCZLJlfiyIMNJCiEgUOXXyZzh98yJDrDZ0g3WbSRAzkblBBsVFGrGPyO4ZR3ha/0yCYLPh01bmMXI/wJclXNDyGLlW5zGLIGDa7c4qCtUZP9eI+92C1OKbLP9MghgH/N1kDecvVNfTuGt+wjNQfFWCmIFfjUTjQONA40DjQOPAdTjw63+5Dt1HodoKH7N5/OQTNvLFr27f3wofy2i/3G5xeulZ/l5d4cdt39FIU/33sT8scUJme788fKXGoMCPD9tiD4ZM8omv9ubjgy/8w9VyyRP+2E9xpVCqj1/5wpeY95sgk3F3B0vd4S/729DUG6yW32SjmBe7rEQpk4nU13ldXfjrZA9UL+BKXeFRLC6TcbOG2XyzB9osjov/C5C125vjGORfwSyenz4UicBpMlGTXTmQllqawpid0FfOLyaPc5tFrpRKJb9wMWHh38pMNn4mNZTBOb6tXLAmCMyaiaD7PJyPwhWbSTenOOEjG87MWn7PnMnzkKIo5aNwRc9ElKI5GwcaBxoHGgcaBxoHGgcaBxoHGgcaBxoHGgcaBxoHGgcaBxoHGgcaBxoHGgcaBxoHGgcaBxoHGgcaB26aA3s4xBN+Bzw1pP2eNwe643rZ72ndnnA+7zq93tKPPS7+E7+hf7bLqkUtXqtz2Jizv2T9O7smVIY193PgwNhvgr7JZW5dlDnxrJ7DMnfaB3TRZ1WTVljgQPEGpj635Lux7kY50GVWutviHtO7JW60Iq1YxIGp+9HwBOj2ezYc6Ke+kCtzOv6zqdDrLuhQRltkTkPc59NERryQZurXEHeKQzfzfhJtsaRjQ9ybEVi5IKu6o8PnP5G6XKz29kwOVApqnP7InlmAlmxWDuwqvp6Y4Vo1B85alEZsBg7UwS2c/jvv3u4ZSt5IKBzoam0/g789RCHTgm6EA8fqbtc+oDcismIxzJWYxSj2pb3GoyZqi/NkHKDLVapyX8sDcqpStEiPz4F6ef703UWlM5eG0FozgvgtOYnkhYEXFeulJa6X5/Lf3mVPeKvgSt+6dwWXLo7ibtKapLT+9/+Zmlcr0WjyLHFntnf1w8rN9u1nFxzl1uQ5m8xKhKqHld1hfL/8l4M72rFEVHvX5KlxZf6w2mEl3OPXf9eXVxqVSncNea4u+aCXCvuM39XebQ4D1dVyAzcuX4C5c7PpGm1k7jI+Nj26P7MiU7Tz7j6DadDxfMytyOakKE2eKbtWdSMWuPEL7qpc0+R3cXVnmsP1Qpo8Fd4eahbv2UUp6xUgLsj1RjC3yVORZ9VSErsoZb/raOHJjWBuk6ciz8V+esrMLQFcjlayJ2PuNXjf9FtNnotDurEsjDe6vUqwOoUQ93TMvYY8w1I2n+XAuJxYS9I7gY/LhUFcWPJ3mp7b5Pl47W1f1nEH8Rrsg26B50mY2+T5ePJc7EpmvL3svri80yLuaZjb5PmI8gQzXm46azyEK/t2YCJyi6tPwFwz/zlvndqtFVl+rtbmnqs4wn7pvp3mVQfg6xB3YudoTGxuf+vzBY5qXXTchZ0Tk2OI6M1PaVto8izIE6w+fbi2etwqR2Qs0PLnEfdkPbdUglPfNXmWObY9LN05UkO/2fTqOAa/ngJxnxBzmzzL8oS3eI4Urs/ic6WUBLTjRSBunZ7b9CGFlTcRBDaFEHGrMLf1pZsQnlYIWnMUIG4F5jZ5aqy8iTC0KQQ6Lnqn9NwmT+TSbf7AphAj7iTmNnnepiyxVGhTiHRcDCjac68hzzZfhmyf4WesDIGOi1SnMHeGnAMS12gjQQavxUOriQKrgqn5CfbcOVjV5DkHF5GGschHOi6+KGIuRpjz1+Q5FzftKRoJ4j4u5jZ5ziVPsimkOi6Sf0TMbfKcS558PIaCuBnMvQbvm347mzyNTSGxKhj6mp57DXnOVptGaEE2BR1xVcxt8rztRmNsCopVwRQ70XObPG9bnu7AMEXHxZLHmNvkeePyNDaFHOImmNvmP29cntamkEXcjJ47Z61an5+Tm+5kzgzippg7Z+5Iq8lzTo5am0IecRPMnTP3Js+5uck2hQLiXhlzW/+cliksCMOfvWawGJ9tChmrgknLem6dPrTaHjD33bbqpIv69fErWv5PV2HSZRYd5mJOJLwwsMihJ3652u54wea+36wnm7+1KZQQ12HuJLHFuIfcj7QEeOjXm75m33gtw4apK0lqCT2neP0yWFA9bncTB4KxTaGIuBZzJ+V5XAZRRmhRuT01pzP1FcpTu3guf02dYanfDVHkPWJuIKxUIKv1IYHY3J6aNPVkyOuTZ69ew5K7RtIykG0KZcQlzH0odrb9UkXX41wXyr42eeYvbtWuefXdwe0cDHdA+AjsOr79jJ3pczykndPEypcL39fPl11DnqO6GySt3ROEbAv9AK5hTpDQFdHZFIo6LkZnPdcl9Y5O75wmQi93E/s05JrA8Cj23N5rtJF5yii3iykU1UlrE8/ZFKYQ1+m5KX1/2kb6DkLkbv8oQpNnxBDrLSozEKfwXpy3WhC7ySeZQzPB/rQNW5zokX/f5BmxyjJ0anC2yt/Q620KRbGbjFTMnTiMAzq2Oy0nLn2TZ8wR9E+gLUY55iXubAo1hJS1YpOH5RQQt8kThRP/CmjqouYvd/A2hbJVwfI+wdzJw6ygDDkkb/qtE5B35JjlY4CrgLjeplBEXO5LEeZOoi0Wo+qK0qC8sed2ddG4pJf6q45jLCGutykUEZflGa3PzX4bg3oN00cMBvETz+uRpxhBJlwQAYX7Ir1NIY+M8MbbhwTm1l6fRjtORXFOdb4eeQp9psikvIobtIjsx1jIU9gWjtHpRrki1JYyl/71yLP2PoD89JWwKRQQN5j/dHpu7fVpe1XBPnX+Myft88K76qv8zqN/VqpV7ZepcLGHsCmUEDcon8Xc2takw73s8wH1R/HcZJ+vBTzYIphlkrQpFHVcSYH03EIjkXHBrcJ9k2fEpcWi9rqO4oXLwdetwjxBpUDMDXp2UjYZoIpODZSpruq+yf4pjradqHzepGDPU+D0VQNajHzcvPNKL6fOPFXRqYEZAvMHP3N5vn9Pa6jUf//8rQz+diN91r0JopjA7//2Sy2bD78NzxakdE0fSthX3z8/+VHVMYmitClkdFylL62+/tunSYEyAQ9ffLM55udhM6lc8E32JVe6GR2Fueool/Wbz/PGHGlT0HXcVJ775Ref1OPtx+Vvjsuqu2KicpP31cgzP6yM2bIcl8fsQoLApqDquIk8+/XD/R/zXT7K/tB1sFCh24VLEKNIee+rkWf1iAEGqsNmtckIILApqIgbyRModV/u9GGlJhYYqA40ZtkezsHdVyPPwrAyZCsOVEFz7TOYG408Uh03lOceFixtvu/0YWWYMfmo2W3NIHTlcLfNl6WsqrW44UAV560yKytDm4KKuCJvXGLWf4Un0avLNEVM6zTN5YiX4uHP4m7YRsyrx/t/m33+WGmFJMsc3nuVwdzApqAiruM0Ueg2O5BlLU+seWjHAl0sEHfLa3pdfldy1Jb9StlnyMr1BZkoGGxHJISjKubGdFLEZeqItdCB/0QGxLwVkaPj031nd4D6/Fsd77+p7N6cZNbnbcpzsa7iid3JYlYKqJgr1ykg33IzZ2Y5b98bCM2LXfLeLUoZg5sq+8/O1Xcl8XPdNyrPVTh21Gvn2G5uGtQwN7Qp5BDXpuw2drt+1VISsShllM0Ev5/n6bt6LQEIBvhVrnu/UXkujtNTZsB+/lnJKpgbtwvXBiip0V0M1kLn7XjE6q6i5AzSZ7AkZiX22Rj91uu7aVIOqeI9XWkBwLFe7vYVpqib3e8wjbhi3yB3qBRzWULMwxBxSZ68dQJE7bYxhGJ3iYUjtAqhXSH+TdoZpuW5lVdaoGTFlzrO7sb9k4gbsJw7VIK5kU0hQlyQp0sB3d3bMUbRWFRGxffNGrtCHLWMu1PyhO2KUSuBnXXKDECc6236JxCXJWgL76QbY25kUwjtuP3AWItouzB73YmiAHONPQHaUgRrV4gjl3B3Qp4p2ABxbUNsnOeN+tcZMx4Vd7gPGyojLgxiQntubFMIdNz+jTP9Q4NYyXmdPrdbELNfbVL929kVYnZmcbcoz9x2xWfcRfPgolTK91eHoIaxkU1BIu7qy6+Y+dgf0Zbgf3k7f+YiS2tX0OY/ddw152H4HKUrapXyVXF/+k2uB+PS58ClWypd1yEuQKq058Y2BY+4HmsJbeNPrbbbHkuW3XFv7ApGZ+Yq8LOEuxxHPI8ON0QgO8edUn37stjnmcDTPdUuqgYG+w+C1h3bFBhxWa/F2mFjSL60ej/M91tjV9DlCXlkcTdl75QyKMe7Yeobl+cCwCXS8fa56TGPuKE9N7YpGMQNUJm0n3ioCoyCrhjl3ilHZDiOkl0hK0+IpuOuS+8cU4O1/M6dW5fnYjziqT92JN0dD8tdqAg5HngcpSCBuamg+l5iLaHtIhmpEhmQgDtHCs6VgkG9yDBxol2hJE9oIW5eLUnsAyZUe4iY3St58/LEWuI5UvjbHI5Rd/E8AJfXcSmR03MVSb01cyPWikafXsUiYKjjOB5zX66P2abE5QC7gqYP8Wt6OtzN6UP53ufp5BY21utDK2qZ/iCyBdZxTRNbW3JSZicGzmvvkIgrMDdWdGC48c70WdOXCG29LcEz7QyXbleICRnczfWlnKwklRqZy/ipO5d7GvPpQoSOi4VgzI00HcRaE9PIk2wuwpZwUfkzdoWYJuLuL7qamsXSgEZdrCBJ6HkO8gwR19kWQpuC0WtJRSR5kmgDW0JY8RN9WbtCTKf73X1wlB2/t9Pk7M09/WxELkY5/DnIE5ZnhZWwWqywKbBeSzsgUJ7GslfWc0KiEz6xXqEcc+g1fbe2ZdWuismV4VnIMz3VgDDX2xS8XovdEuVJaJt8YnNcqAmX6xVK8ZGjqb6raG8qEX23Yv182VXkOakwqlUpBMaIazGXbQrShmAG5fZDWrlgqZAzv+qHcL0Ch2efTt81MfLjsZCCW+4SBF9FSkEORY+0gBcjVr+MEdfoucamwFhriBHiGrR11whUZ5OPCH0+WK+Qj+nfSNytW7wEabmNejLgenHyTBGX9Fwcn3isNSzArmnmE2sxLmBdxoMYLtcrZKJFwQ53aw9vgFppmPLy5JkiLkoSTNgSaw03N4NBW78uIeLyOV6UJxyHVTJ86GQN7tYLRI2pBur5XSN0frzFLQhpSVcfvlXMvt37DxR1JluCyZbkafdBpAUphwDu/vWhHMW/HbSYL1CeGuIu9j9+ofSYf/8zsWcuWwIRszbECruCwvvhzX984yVWdg1vwzVMFDtnQ0xJKbmnkU4NmV2/xQIoiNuvf/2Fs+e6Qvaff4ngWDvic+mqHNN2hZijq365W7+Bj3rdb+i76HD9unQ2Vpz7SYkfN3KMuKTX7j7GiAvT5Z+hnjSjLUHWc9KuEHB03K4327HfBYGSXOImJW5/1s42pFWfUZLzowdYNcfma/RasCmwPdeGb7oeFaJZbQmyqlN2BcHRYbfBmdbt2u+ikJRUtx2ojseNgrtqiiBQ5B6E36InQFzWa2G8FqxbAFGC7gI6rqb3z1GrKbsCcxRxliav6JtbWmkSlMqrfWfhLuce0LxVj0dcb0NAm4L3kd0WdJdu+a8Vy85PqKfYmTBhVyDdxeAs0e/IEl/bvMKBKuNuvT5UH/OEyl+razgdV9oQaM7TYa6xJCwW331+Qnkroprxiok4aVewOEuxO7NponbwhHuZ5c/g7hP3umuMP6mSFnEZaynMWIEs5rpP7LL+/AvJvqxbyrNsV3A4a0rMDczjaDYPfBGvnYcgwN0374qJrv3yavIkq4JAV6yIVXwo1NptQc3b1Z4dVsmLQJ55u4LAWSLsP7Z12k04p+vK9svX55zk4JJf6riePAFxJdZSQfnTBJjLnQH3OLiuemltTCY4pPU/3a4gcdbENSt30D21WNPGD7MxgTgKOVffZQoXPSvlCXcM4sIkdTo/l/94/32s6Lg2vb//T0o2rMiWkF/OSrHgFjrKXedgnH/YP2Epnt+Ob6MyzkqNRC6Rnl7el1/gR9/PKn1X5h7XQfg7qvtuq1jXRCx21sjT3BKJe1r9zZGcPv9cbd6kHyJep9B9YmwL/UADhRLi0v7LPebub47M56q9Ce0KAmeF7tIHQp9afmtWEGt5uTDWd11A4hC5J+9sAC1Q3WLd57sr8+hX32IueLNrTVNBrE1xlNcpANqSntt/amYb05i2RjAxI29xhQo6oLYxKh7CrhDgrOco2BHkbxpxJxAFiU3hrs9dZi3cq3WwQBXvyoxUahG50rla72LQBKPA9CiH9NrAqmAyNG2BxId6bv/GktL5M+7StpPbU1OoEKs6jLMc1XE0+cZOIW62/TFp8yzirss9TON829TerfHDxa9x6HtFclvpHEXWa71VgV/ROgWr20Ks/q1tLSri6rcYKnvbmHruiXYFgbMcjTlq7AgcSk+vHQXB1qOWVosIM79Z+y7nrqfL8Hi/vKCL5jZ42TVBekEg1Ou1aTtGm4KDzP7+D0wkjQlXGGaAvbhhjwkGz9Xb35N9Nghki7i1IwTvxk2f4JKLIK6icGF5Rw53i/IMDKOS9njIcUXGUt1Kh3fxoPk4d+wQNoQUccGmIET3xc9uO0qMuF3hYwFdNM/tWL+FAUi//L02+2oKntna39OBSHHdwJ/drkhxVSkVcVfJYpG9+hQiFz93oR4QkJ5QCoRUwmTBrFiCuCBhr/YOO0bmRGNMW0KQy7bQnMJhjcXZ7D4I/rgG5NGT+VDrnyCXWpUnvM3jrkvqHTnemhily90K8pxS2h1q+nKAy2OtCU6K1v/s59BxXYKz54YxQ1+QBXkOWZ0s6J9en010Hkuz8KVU9rnmP0GWXE6e0K9rdrYRFdHiLdXwIU5eCl/AmsM4wPmnVDy7rt3FNw6BtSYg6Wdf3bskZl2C+1RIxE36tUtkHflG6uUZ6rOpXQFJSTtCnAdUMRjHjzACdt+HJLIJyMsT3lfirt5TRIbuZDQRZpxZeU6gLaZOu5BHT59RJBlgkcNDuy6BUwmtMWkFnh67so3UyjPVZ0O7gqET2hGYtn/CcHtpdr+SXcMV3ceIXEV5Qly50jdKyt6Ur/yGn/nLT7PyrNkzJzsUZhVjrck+LN6mY5sCmuftXk2LuT6md3EV0meukdL8p8dZkVDYFSi020Z2BBFXOI21sep0MEDVSZEz7uZ2ikYdQBTEO7PXTee+QlW74USHwqwSrDX5B30NBcUKN1jnGRst5nIDqakSNIfMcAb1WXVJUqz6DN8V1GTPvPldtNI305MDdmWzzl83rSYZ6yoqqTJqpvSEdOhLz+cpwFCU5WnXLXADyUoqIB4fEWZepjjrE0XrFT5ja4aP8Wiu7eHLH9QxV1VPglVOauJc8fW9U0lssSVHx1qTwqOn+dKjTQG+JNBVnTytnmti1l6f5gc+rmQqzrq34T6I7u07/+bxXR9/UG+mqBTUabsVvc5SrqfLPIO1JrWDECtYs04BO6GQJ3x9QXckxI1XcuTKEJcyh7MivdgHMW4+q15qKyjM5gS8jXa2IWnRRYo51a6KMUTMrEeRIL20rSSPtYaERVweV9E6BSpQcHYFUiHErb0+zbQLW0qHs2I9mFIBZ1eAj2lOI1GSVQdN60NMyuQe67uVyJi7CVDXh2oBDw4+wdKVsNaU3nRMN67CdQraHgfQczFmbWsS6+oFzso+z7wTT7YrFOwIIvbJzoyWU6DD+q6JUo2jyvIloKCPV7bVRnxkfRFrTSkJcS3aQgisUxCyMFHoP2DuZuiCuWXxNnFauA9xdkKedr1C0Y6QZFQfcLo8gbbA3dq2vNCvbNDlWQt4OPaYwlrDCkBcRlsM2Jl1Cead/I8n2TzooCGjWTeKzuEsv5+S5wLtClN2BCZ28vMseUIuFnf1Zq6VIlz+yzF0eeqhnEY+17/kpiFkLHD3gTG0+yHbDvu3HyaH5Ey7HwTO+kB25Z67Y5UdIZe8GH6uPK19N2soSDNVhaQGZlA4JblYvP/pAc5Wr/g9/PiJjPXtN+T7Skn9n3/7o5aTFnb49k1qT53sn4vx559pxFR/doWWuR5WL08l9+7dt3/XySqhqujUwBPk+V/v/0LLlSb/ffb+Sxnn/s/ke/MrGUjuTz/58aNSejXo4a+b/DyLmoICuw8GAup5n6d1/ps0dzD3v/m8mqAuOjV59ZacxfrTXekcaU8d9pKJ0d62NzaFtC8Ny6/fnIC3OGVReyAJFwbWI5h9EClHOcpjPKPcVz3OVNTj7XiCPKuVZhxabN0wpMAFEKazKkA0ODWRpJvIs9/8/z4YVhZo8j3f+8PymDPlKslpPQLZFSKOKnGvGSRzB6VubdYxZvWKuCjVA1VIWB2X1LHSyhBbCtJtvR0XbAlm70Mkz3G9+/VmrNfxuPK4RKdWKbZGebQrSI7G7Lq+3+cOOOuO+eXJisn86/sckGJGTVE1A9VxEnNNF3aIS+sSUAChPAdYCIrzdM6KOJG9HKhW4y7bEcCu4Dk6kdFVXtvcDc66HPRhpXvtHYrx2r+MXbWthAeqE5hrBcmISx0QbAqgo8tZAhzR0OxCbdPj7TC29BZ3wzYS18zbEY47RcOMo5/sr28jmLvHWc5IH1byW//MgFjmoxpxypOJXK4fFzHXWRIs4prJyciaDlg7wrQZCrgW7pNWR7hblKe0I2jrFaL6ne6tlyfUU+Csy8mx1IWojoySkZGnRDKVnAkU0UqY6xUm6qh226Bbp0C0EGvB3GRU2zosUaciuv7+d37BWVz20I4Qr1eIY5/jr5ZnhLMur0ptQkOL9gAAE+dJREFUPRMtI8/wljGXV+wIFqVkMdd9NgFfcAs0d37ZvYz1iOdy6xgtZ9NFyfpfsvou2+Jt7Hi9giBytrNOninOugzrRixet3QJyZGTJ68UCGNHPma/Dc5grkNbjIblMENPhBumR1gLX1NWhPJLSTgFksqUHfA2o+8m+xqi9QqC+NnOGnmqOOtyzDRT9x4drIkEgejJ8ATtrUncOCCRuY65Hm2RANzY6igvRzP/abDWoS3EyslKFCG7xs3Mfyr6brKvodtOnq8Acx9wpQXuPt2six9mLtnk/KfD2dzsa1ZWnAU8s9LJj9p4bZagEjmVGArmRlmPy/du7L/tiUVsqZfdfbqRTseI7AzpvgboS2K9QlQ78kJPcldawJ7m+lGuRgzCJM5me3IOSz3N6Rg+Lrsc+HFA/IwEZV4nmBugLcb51U+O0Ph3xEbekRhkmO19nDi7/JYj4FPirvKxRI669QoynXXD9rxIteqUDYxKwkzQEOizWXnmex+XK4S8TG5xsOwu8TvwJ2hr4sSYm2S9fufwdtF/NzDWSrRFShOIW/WFRToOd9mOgIH2RxyNdCR+B091u+LZG/YcznIOeXlOIe40NHEewXN9DLyhp1PQ1sQIMDfpxKu1KO3q/o2Td9x8+nQjsS/BWCybj0cuwl1vR/BvDUf1fRCL3HbFszbsSZzl/PPyhJYU4QKnoecxq/QE0RJPrkYYMbubDt4JzE3QFs9e9Og/3v8PG4gCtKWiFLJwW14oYvRPWQ82Ht/S8DaKaTUS1a6gdk6TvthFNX1ImXQHSjl9CDMp7HAtb1fM60OGrN5FyzQXHnOTdka2BO60w/IfrqkFQ1nMG9uFR2YTYv5DD+FWIIPZramh27XDXY4mnspwdy9vvBRRyTke9ILhy6TXJTgbU1P92b50LK8HcfxUqS50cDlmsZapWMxlwXEw9GtsQBZxUa9lm0KMtiYFa74+PbiK3QPeK/I038hI3/VEU1Vp6vOctFNHLJSnhrMuatmhAsTkdsUJeWrc69aFrehcRsLcFG2tLQER1+i11qaQoq0hBF006oqryf3mqTydHUHqu1xSfCZ2hakjwpSaWXpSnjrOyoxLbuii8Vd0Yi8xUJuUJ+gF4l6/EcdgVcsHEHPTVsy2BBh42g+aMRYpaGurCncLOgHhiS2KmhoxxUXn8MCOoONuZFfQd8YwPXymyGPfOnmeh7Myj8Ug7srEg4KWceMOYpNnWp4QDUbSywOu3xK8TUnFIVtlewhvNBrvv6a2txpJwjraWoK4i5Zyx3tI40wUfyzPpFk53BXzZYFdYWSLpEKdg3KfHCPPGpwVuTPR9Em7ToHzcPFp1QlhVfLEbDpcrBVhX5q9DOngZELpBzdvuhjXv/tAr+AuI5gfyqGtT73C3J1dyYdXuNKPo7MzuL4EZKRdYQptMdfM8JsKVIezMndKlvk3Yt1j5M3EvWbwpvN6rs3HfhAQaw1gQV8CDSmPtjOULwPQiLvBfiRvV5g8aYBKlUPcapytlecMPJiDBNU3sC3wHgfSWo2OC/JcLYtoe2lRNDuCpbn/5l6uI3N2BZ7lmcgagCX51eAsJ3pe8rQaoLAt2Hsc2F5LVgX81r358iQYZ3bUPeV6hCTF8BCsI7N2BXWaPEmrjYvqcJZJPS95sm4rMJdsCazXGhUR5fl93WoEZsNJz3A9QpwUOSr1XWNXYB08jh37o1Ux1TjLdJ6VPMXXxWEu2hKEhQARF9aDHbPHunHFT3xiG7E//03kkOBpNUyv727Q2hGtawpSSI/sxx5n66VUpd/KDGvc1fptDTEfJxhvM+YuR8ZaE5EQF3Rbv07BE7jA5eXp7AhT1NjOQHaFarhw31mJs/XynCrUWe+vJE9GW1Mmg7lbZ0PgkmInRt22YrjHSSqeTp6BHWEqocFdsCtU72W266AinH2R8hRoa/iImLv8KpQy2XFJt639Yk3JxLxneSZ2hKnkiLu/WX7M29ojAiA6j7P87iXKM0BbU9Fu89f36YTm8Alhll3AySy58GnlqdkRpigD7n7zxcNULH4/vDGXZLGfni9RnnE/xIp++m9fK8OSn/5MTOAVnOS59J+1I2XsCJK6MgO5evff1Z+g4YPXvBxZbf7TvQwcSu7B+7M85fnPs0iqtur+k++dnuupHv/rrTHjamNzH+0cV8GO4MjFfWncgrn/01Pw1pE6wxHnfgaJR0mioC3ote/2ct2CKchq8/Aro03WjhGqK1C0IzCVkKN2VWwYyFG1ZzQA1aKUwuozKlG5/rsUbcGGQJ9IYVugYqwHui8S3OHeh8vLWLYjMH3BUa+lymElR9SfFzZCkbtO/zZCE92WbAj2CxlgLui2OL9CiMvrFOapw4QdgTNhjhLOuq+7G1ZytNzzwo8E554jfxvhCdoaGwIPMdm2AIXFWTJYH29Wh81oUxhWtXYEo5HEuw+qJlmx/OqR5y9NH4rR1thr/QjTYy7PkpkOzQK/vFXCHc71s4UeZ13GPEnrAjIO/ZTBJ+511cp5plJxcIy21l7L6xIwusVcN0tmENdLPCZ5qv/hy1pxhjjr8qnEUd7L7NKR42XJM0JbtteGTZ4wV6xJIMSdzaYwvn0IOZzzxTjr4tUtkFrpdt6XJc8Qbd3cWLRQDTGX0Ra5SJ16LpvC+jtllO9kxQ4FZ/lVcSmJi7TIXH/xTOQJ99DDb2pJUoi2bm4s3eu/ff+OOGPOTyDEpfMUPLsCF5xdBL9jDY7uzJ61IHnsYZzNzViF1YhTG39uUUq9PEeqFDU+w10i7APhqFH40aIp2IgHzMf3U4E1309zxwGuSnKXHZg6xf8DtGWshUjpYe6rrz8cMbW1tRLiZoZzK9h/uaM7E4+4fHFiUViFHcHjbJb3ucV7vsIV11/4yBkXctQYJ2m5m4EVH0jrwMwSPFqMR615KnCCPVCS/fIgmQhLYFO7ui2wRFuHtTiNklRoPRg9l+dCsEeoNoUO9l+KbgnXYBZHqpN2hABns/IUH/ek6CYgg7aZ2LcTrG14yG13kDDlsBaqkn4ZzSwZiJ/lSYirSEqSsUwpbXeYsCMwzjJ7s/I0x+ZwNOWZQ1sl6k0F6czTtyMJtBVYC9VJhpa2+YOey/Ikq0JiU9A3JGlNzDCtbEfwOMsszstzYgnpHGjLhXjEZ55zWhf1aCuwFkqbjixZtx13X3/K1cHOHQle6Zwmtt7KQC8VyMx07TPAWX5XkOdqWZhm2RcyYto3+OyWpLOoJYMuGoV7tI3kIG0JlMZZEhaLP35gESDiBpLXO6fJFBqaM7e6YvB6BNfn/RucB0sTLHL6LSaEKykzuoWaucur0EZcnKdxGLtNNu9o06RD2xBr/R4HRyhQNrw9F3TcQHHaFPeqpB8wtx4hlmeKs64oRYe6YU/bcBdQuV15TuziiMTNaBtiLVQ1siXE5yR4ey50cKE5+e4esMt5EgXTrUcI5KnirCNSdmh7avOfIEvrZuU5uWfOTIzYajD7I6yFAXA8whVoa9LyHBo0EG9TKG33oWSxSuLXI3h5xvqsLWv9Y4AdbRKnh77wCTJkb1WeFXvmWIZQEYu2MdbCm9iWEKCtYQFjLjQQZ1Pg7m5iaP9DxBV2BJbnuTgbZIY7Tnv6xuO5UjvtKxzET/fbh6+fzDeBtlgugbiG/QnWKrYE1m1Nxcz5YIy5fc82BdFUshyQiCvtCGRyqcLZuhVZsPsVzwdz50plC0Qv6uc/y3Rmfhu2/gxxh7iG/QnWQjLxRSQiEdpyXzKYCw3E2BSccpXJmIIFgkR2hFqcvVVsLNX6vHeCVyUC9mAjYr+CtZA0GlLGaMvytGvFho2xKUyjLZbK2R9CO0I9zr4eeVYuXbPKDrJfwVpgeTCiBH+Its4eD2+sPZfufUh0KHiv/axdWNoRqnCWab0eedauoaE5XURbDWuBbZEtIUJbKU+zbmFc/gOI1V6fZs70ZTsCtImM3YDlFz9fjzz1ufeYHyAPGPQD2upYm9gSYrQFybF5CEmjnjt8gE6XOXs5yZ7k7uwIjLP15yzU6UNJtsWAm9SHagGPTnrfdDrWQrUjW0KMtjFjEHP7z7fVt0tQMY0dQeCs+ybH5B/Ff5N9Pv7sZTkBi49h5jynvkTNIkHblOx286ef39decQBwDn0Z8DnE2SbPhK+1gAc98Dcf+PzahEpkS0jRNk0BmPuXn/5SvakGltfvklsSmjwTvsY2uiSCC1i/f5/lfmBeT3VbRyNwjLt//bZmQRcl6h9+S7d+BRSaPAN2oKdenl/8+A7XKqm/z7+TwT98Ln3Wrd0X+b93f0wKlAn4w48/pBa4enmW5ssyOU4G3+T3s16en/8/WsCk/nv7qQj++KX08Qvtvsjfvf10kms2wsNntTHVeDfJe7WkFwbWy7OgsoZKlR4x7UtyEcpkLdLkk0lkhFcjz1pzQvHquMCWkNFtE4GgIbfWnFA/UJVCFO5XI89Kc58yu+m5FexxyOm2kTyN0S8a5niSicsa/JLwyoBXI8/qPa0hpgZsDGwJOtqG9j5jIEIatWKqH6gGJXOeVyPPhbLcynFBOvID1aCTZdAW+rec/eeFCm5VrsxJcx/VoVLU57WENuzV6LfJtGWOKXk7r1yXkEPbgCpPakNgLdwf1BV49fIM8p/Jc5t9Pvj45WuaB7zAlpBDW0mYF51gWC3c67jc5Cn5at11K4blko+QiFyXkEVbkcRhLYVVLHaBeJlFKU2egq/srFrxUViUItYlVKCtwFoqQNXyCLfahctsn02eEUPIm2n8Mmq8ZFK8k3pvCW3N/KfEWkNkcrEogHIOQtr8pxCEd+YmwXyMPNrKdQlFtKW+FGKtoX9QVVefdxZtZZQp923qLlOlPvP9JOIW0FaoU2W0BXnGWGuKO3VBkbgE7cz6QbJXJc+cusHsKwlK2BJKaIv2hBRrTQYT93tm0ZaLV/N8XfJc0OnbOb6sCnvShS2hiLYgz4csrBfufIOPp9/ekCtgRfgrk+d4OEjzTcCg4o2N3pZQ6sRAb/wmb4jKb9jDxaHHoDSBp+lDATukJ3f/WUnSqHk6GmW0zWGtTZ7ZsIdbM+WyQJeZdbTxSswR79fvJyx2TgBRp5uW0VbTa33W4NI27GHnjLcSB4mqrb9hqrl8t47haRctd07gi7MlFNFW12sjtqZddKJzQvrWPyMmht5VcLUd3ndX3Dgt9ziU0HYCa7kMID5xYE3Xwx2D/Cr3bPLMcYbDgY1LWsAFog32t3KE4OnWJZTQ1mJtMF8WUPEeOFBqA6d+Vd+ZeII8qVL5E7rUY7smAm8db5mvtIJLnZ/iGPbpbAkFtHVYW8t7yr2kBEWFqPT6SqkndJ0VWJn1s4nmbAl5tPVYWyvPZ1P7F1dQZ0vIo63Qa5s8b70BsC0hi7YOa7EmTZ43Lk9nS8ihrcfaJs8blyUJyNoScmgrsBaj1+i3p9a69flTOVaIb20J4YkGLn6AtS50ZkeT53wM5XUJOtqGWDtfriGlJs+QH5f4rC1BR9sIay/Jp5S2ybPEnZPeWVuCeljbo2AtlrbJ8ySZlSJbW4KGtjrWBudhlCif8K5+/vMEoq8yqrUlaGibwdrWl265oRhbgoK2Waxt8rxheVpbQoq2OtZiTZo8b1ieZl1CirYZrG3yvGFZYtHIlpCgbRZrMUnTh5ALt/kztoQYbfNYe61aNAyfh7NkS4jRtoC18+SaUmnyTHlyRgjZEiK0LWLtGXlUJWnyrGLTVCSyJYRo+/hYi4Vs8pwSFbzvjrh2qrAYjGwJIdpWYG2bL6vg/dxR4EB8uOUP1k75yw7SLNCWEKBtFda2vpRy8sohA19YQfmAbNUVsGRLkGhbh7VNnleWXkxeW46ubR9BW4JE2wqsxayaPGOGX9ev7xVRrooDW4JA2yqsbfK8ruwU6lpPpGjxC7QleLStw9omT4Xj1wxSuqHLrlsG+0jAluDRthJrkVbTbx1Hr+7w92BoWY0HsaUWbAkObauxVqM6R1j7JutctJcf6S9x167fzQK2BEbbeqzNEb40vMlT5eDEgRRwyp479RhsCYy2J2CtmusMgU2eGhNl99PeQ5hD3N3eou2TYy2WtMlTk5cTlvbShI32hmmwJRi0PR1r2/xnnr2zvvFgWiA7GMTttwZtz8Da1pcK7J3zlVB2CmTNCpPln3BlwllY2+RZ4O6MrypPFF4dIM9tj2h7OtZicZs8ZxRagVTtBQ940hAcrQBCLR4JlM2pyTPLmllfbLIHg4XZwP3lw++X41lYi5SaPhTy80q+2gO/8aT39ffZMxWvVLoJsq3PJwzibX/JizgAhix/78/E2pjWXP4mz4STAKOVv80fvniXP7Wxksi80Zo8E346S17yJg744T++FHb5+O2T+Js8E7bXy/P+vy865WlFJ3SRYX+LTjp94cLAJs8L5Am3XV/yG+mELlKmO3RS47gw8JLyvNC09f2Tp8leKCNeSLVO0IcqB6ovhDHPtBqV5j4w2uYvMHumVX+Rxa4WU/VA9UWy6flU6gR73/Op1Csuaa09vsHt82gk7lDicnFpvqwcpb29CQ7YpSQTZZm+ZWyCQHv9SBywS0nKuVUtSimTaG8fiQMTq2+xFBVLAB+psC2bSQ5UXPhWd4vuZE4twqNwIHf9rcu84s5VF7c5np4DEzf0Vt2J/PS1aCVgDozL0qz22NCWGfVcnrBfMGttTy8Wey61es3l7DNdVL/47zVz6pnUXe+irXM+E/EpxeyX8YIS7YgMJWELuk0OdIeNsM53x0O40/42C91KVeDASOdI4XKtHVzG6XdlF5K0VzfOgRUsv/tHWzl341LC4v0fx9K2eYyCogAAAAAASUVORK5CYII=;" parent="1" vertex="1">
          <mxGeometry x="162.01" y="759" width="173" height="131.15" as="geometry" />
        </mxCell>
        <mxCell id="SVYg9zeV4l9jzo81nZFu-9" value="Dataset" style="shape=cylinder3;whiteSpace=wrap;html=1;boundedLbl=1;backgroundOutline=1;size=15;labelPosition=center;verticalLabelPosition=bottom;align=center;verticalAlign=top;" parent="1" vertex="1">
          <mxGeometry x="10" y="480.58000000000004" width="120" height="170" as="geometry" />
        </mxCell>
        <mxCell id="SVYg9zeV4l9jzo81nZFu-11" value="Dataset" style="shape=cylinder3;whiteSpace=wrap;html=1;boundedLbl=1;backgroundOutline=1;size=15;labelPosition=center;verticalLabelPosition=bottom;align=center;verticalAlign=top;" parent="1" vertex="1">
          <mxGeometry x="10" y="740" width="120" height="170" as="geometry" />
        </mxCell>
        <mxCell id="SVYg9zeV4l9jzo81nZFu-12" value="Training sample 2" style="shape=cylinder3;whiteSpace=wrap;html=1;boundedLbl=1;backgroundOutline=1;size=15;lid=0;fillColor=#ffe6cc;strokeColor=#d79b00;" parent="1" vertex="1">
          <mxGeometry x="10" y="537.58" width="120" height="60" as="geometry" />
        </mxCell>
        <mxCell id="SVYg9zeV4l9jzo81nZFu-15" value="Training sample 3" style="shape=cylinder3;whiteSpace=wrap;html=1;boundedLbl=1;backgroundOutline=1;size=15;lid=0;fillColor=#f8cecc;strokeColor=#b85450;" parent="1" vertex="1">
          <mxGeometry x="10" y="856.58" width="120" height="60" as="geometry" />
        </mxCell>
      </root>
    </mxGraphModel>
  </diagram>
</mxfile>
